<?xml version="1.0" standalone="no"?>
 <!DOCTYPE svg PUBLIC "-//W3C//DTD SVG 1.1//EN" 
 "http://www.w3.org/Graphics/SVG/1.1/DTD/svg11.dtd"> 
<svg
  xmlns:svg="http://www.w3.org/2000/svg"
  xmlns="http://www.w3.org/2000/svg"
  xmlns:xlink="http://www.w3.org/1999/xlink"
  version="1.1"
  width="774.197080cm" height="1083.873880cm" viewBox="0 0 3048020 4267220">
<title>SVG Picture created as CD4052B.svg date 2022/02/16 07:28:46 </title>
  <desc>Picture generated by Eeschema-SVG </desc>
<g style="fill:#000000; fill-opacity:1.000000;stroke:#000000; stroke-opacity:1.000000;
stroke-linecap:round; stroke-linejoin:round;"
 transform="translate(0 0) scale(1 1)">
</g>
<g style="fill:#840000; fill-opacity:0.0; 
stroke:#840000; stroke-width:0.000000; stroke-opacity:1; 
stroke-linecap:round; stroke-linejoin:round;">
</g>
<g style="fill:#FFFFC2; fill-opacity:0.0; 
stroke:#FFFFC2; stroke-width:0.000000; stroke-opacity:1; 
stroke-linecap:round; stroke-linejoin:round;">
</g>
<g style="fill:#FFFFC2; fill-opacity:0.6; 
stroke:#FFFFC2; stroke-width:0.039370; stroke-opacity:1; 
stroke-linecap:round; stroke-linejoin:round;">
<line x1="600000.000000" y1="600000.000000" x2="600000.000000" y2="600000.000000" />
</g>
<g style="fill:#840000; fill-opacity:0.6; 
stroke:#840000; stroke-width:0.039370; stroke-opacity:1; 
stroke-linecap:round; stroke-linejoin:round;">
</g>
<g style="fill:#840000; fill-opacity:0.0; 
stroke:#840000; stroke-width:100.000000; stroke-opacity:1; 
stroke-linecap:round; stroke-linejoin:round;">
<line x1="600000.000000" y1="600000.000000" x2="600000.000000" y2="600000.000000" />
<line x1="600000.000000" y1="600000.000000" x2="600000.000000" y2="600000.000000" />
<line x1="600000.000000" y1="600000.000000" x2="600000.000000" y2="600000.000000" />
<circle cx="600000.000000" cy="600000.000000" r="200.000000" /> 
<circle cx="600000.000000" cy="600000.000000" r="200.000000" /> 
<circle cx="600000.000000" cy="600000.000000" r="200.000000" /> 
<circle cx="600000.000000" cy="600000.000000" r="200.000000" /> 
<path style="fill:#840000; fill-opacity:0.0; 
stroke:#840000; stroke-width:100.000000; stroke-opacity:1; 
stroke-linecap:round; stroke-linejoin:round;fill:none"
d="M 600000.000000,600000.000000
600000.000000,600000.000000
" /> 
<path style="fill:#840000; fill-opacity:0.0; 
stroke:#840000; stroke-width:100.000000; stroke-opacity:1; 
stroke-linecap:round; stroke-linejoin:round;fill:none"
d="M 600000.000000,600000.000000
600000.000000,600000.000000
" /> 
<path style="fill:#840000; fill-opacity:0.0; 
stroke:#840000; stroke-width:100.000000; stroke-opacity:1; 
stroke-linecap:round; stroke-linejoin:round;fill:none"
d="M 600000.000000,600000.000000
600000.000000,600000.000000
" /> 
<path style="fill:#840000; fill-opacity:0.0; 
stroke:#840000; stroke-width:100.000000; stroke-opacity:1; 
stroke-linecap:round; stroke-linejoin:round;fill:none"
d="M 600000.000000,600000.000000
600000.000000,600000.000000
" /> 
<path style="fill:#840000; fill-opacity:0.0; 
stroke:#840000; stroke-width:100.000000; stroke-opacity:1; 
stroke-linecap:round; stroke-linejoin:round;fill:none"
d="M 600000.000000,600000.000000
600000.000000,600000.000000
" /> 
<path style="fill:#840000; fill-opacity:0.0; 
stroke:#840000; stroke-width:100.000000; stroke-opacity:1; 
stroke-linecap:round; stroke-linejoin:round;fill:none"
d="M 600000.000000,600000.000000
600000.000000,600000.000000
" /> 
<path style="fill:#840000; fill-opacity:0.0; 
stroke:#840000; stroke-width:100.000000; stroke-opacity:1; 
stroke-linecap:round; stroke-linejoin:round;fill:none"
d="M 600000.000000,600000.000000
600000.000000,600000.000000
" /> 
<path style="fill:#840000; fill-opacity:0.0; 
stroke:#840000; stroke-width:100.000000; stroke-opacity:1; 
stroke-linecap:round; stroke-linejoin:round;fill:none"
d="M 600000.000000,600000.000000
600000.000000,600000.000000
" /> 
<path style="fill:#840000; fill-opacity:0.0; 
stroke:#840000; stroke-width:100.000000; stroke-opacity:1; 
stroke-linecap:round; stroke-linejoin:round;fill:none"
d="M 600000.000000,600000.000000
600000.000000,600000.000000
" /> 
<path style="fill:#840000; fill-opacity:0.0; 
stroke:#840000; stroke-width:100.000000; stroke-opacity:1; 
stroke-linecap:round; stroke-linejoin:round;fill:none"
d="M 600000.000000,600000.000000
600000.000000,600000.000000
" /> 
<path style="fill:#840000; fill-opacity:0.0; 
stroke:#840000; stroke-width:100.000000; stroke-opacity:1; 
stroke-linecap:round; stroke-linejoin:round;fill:none"
d="M 600000.000000,600000.000000
600000.000000,600000.000000
" /> 
<path style="fill:#840000; fill-opacity:0.0; 
stroke:#840000; stroke-width:100.000000; stroke-opacity:1; 
stroke-linecap:round; stroke-linejoin:round;fill:none"
d="M 600000.000000,600000.000000
600000.000000,600000.000000
" /> 
<path style="fill:#840000; fill-opacity:0.0; 
stroke:#840000; stroke-width:100.000000; stroke-opacity:1; 
stroke-linecap:round; stroke-linejoin:round;fill:none"
d="M 600000.000000,600000.000000
600000.000000,600000.000000
" /> 
<path style="fill:#840000; fill-opacity:0.0; 
stroke:#840000; stroke-width:100.000000; stroke-opacity:1; 
stroke-linecap:round; stroke-linejoin:round;fill:none"
d="M 600000.000000,600000.000000
600000.000000,600000.000000
" /> 
<path style="fill:#840000; fill-opacity:0.0; 
stroke:#840000; stroke-width:100.000000; stroke-opacity:1; 
stroke-linecap:round; stroke-linejoin:round;fill:none"
d="M 600000.000000,600000.000000
600000.000000,600000.000000
" /> 
<path style="fill:#840000; fill-opacity:0.0; 
stroke:#840000; stroke-width:100.000000; stroke-opacity:1; 
stroke-linecap:round; stroke-linejoin:round;fill:none"
d="M 600000.000000,600000.000000
600000.000000,600000.000000
" /> 
<path style="fill:#840000; fill-opacity:0.0; 
stroke:#840000; stroke-width:100.000000; stroke-opacity:1; 
stroke-linecap:round; stroke-linejoin:round;fill:none"
d="M 600000.000000,600000.000000
600000.000000,600000.000000
" /> 
<path style="fill:#840000; fill-opacity:0.0; 
stroke:#840000; stroke-width:100.000000; stroke-opacity:1; 
stroke-linecap:round; stroke-linejoin:round;fill:none"
d="M 600000.000000,600000.000000
600000.000000,600000.000000
" /> 
<path style="fill:#840000; fill-opacity:0.0; 
stroke:#840000; stroke-width:100.000000; stroke-opacity:1; 
stroke-linecap:round; stroke-linejoin:round;fill:none"
d="M 600000.000000,600000.000000
600000.000000,600000.000000
" /> 
<path style="fill:#840000; fill-opacity:0.0; 
stroke:#840000; stroke-width:100.000000; stroke-opacity:1; 
stroke-linecap:round; stroke-linejoin:round;fill:none"
d="M 600000.000000,600000.000000
600000.000000,600000.000000
" /> 
<path style="fill:#840000; fill-opacity:0.0; 
stroke:#840000; stroke-width:100.000000; stroke-opacity:1; 
stroke-linecap:round; stroke-linejoin:round;fill:none"
d="M 600000.000000,600000.000000
600000.000000,600000.000000
" /> 
<path style="fill:#840000; fill-opacity:0.0; 
stroke:#840000; stroke-width:100.000000; stroke-opacity:1; 
stroke-linecap:round; stroke-linejoin:round;fill:none"
d="M 600000.000000,600000.000000
600000.000000,600000.000000
" /> 
<path style="fill:#840000; fill-opacity:0.0; 
stroke:#840000; stroke-width:100.000000; stroke-opacity:1; 
stroke-linecap:round; stroke-linejoin:round;fill:none"
d="M 600000.000000,600000.000000
600000.000000,600000.000000
" /> 
<path style="fill:#840000; fill-opacity:0.0; 
stroke:#840000; stroke-width:100.000000; stroke-opacity:1; 
stroke-linecap:round; stroke-linejoin:round;fill:none"
d="M 600000.000000,600000.000000
600000.000000,600000.000000
" /> 
<path style="fill:#840000; fill-opacity:0.0; 
stroke:#840000; stroke-width:100.000000; stroke-opacity:1; 
stroke-linecap:round; stroke-linejoin:round;fill:none"
d="M 600000.000000,600000.000000
600000.000000,600000.000000
" /> 
<path style="fill:#840000; fill-opacity:0.0; 
stroke:#840000; stroke-width:100.000000; stroke-opacity:1; 
stroke-linecap:round; stroke-linejoin:round;fill:none"
d="M 600000.000000,600000.000000
600000.000000,600000.000000
" /> 
<path style="fill:#840000; fill-opacity:0.0; 
stroke:#840000; stroke-width:100.000000; stroke-opacity:1; 
stroke-linecap:round; stroke-linejoin:round;fill:none"
d="M 600000.000000,600000.000000
600000.000000,600000.000000
" /> 
<path style="fill:#840000; fill-opacity:0.0; 
stroke:#840000; stroke-width:100.000000; stroke-opacity:1; 
stroke-linecap:round; stroke-linejoin:round;fill:none"
d="M 600000.000000,600000.000000
600000.000000,600000.000000
" /> 
<path style="fill:#840000; fill-opacity:0.0; 
stroke:#840000; stroke-width:100.000000; stroke-opacity:1; 
stroke-linecap:round; stroke-linejoin:round;fill:none"
d="M 600000.000000,600000.000000
600000.000000,600000.000000
" /> 
<path style="fill:#840000; fill-opacity:0.0; 
stroke:#840000; stroke-width:100.000000; stroke-opacity:1; 
stroke-linecap:round; stroke-linejoin:round;fill:none"
d="M 600000.000000,600000.000000
600000.000000,600000.000000
" /> 
<path style="fill:#840000; fill-opacity:0.0; 
stroke:#840000; stroke-width:100.000000; stroke-opacity:1; 
stroke-linecap:round; stroke-linejoin:round;fill:none"
d="M 600000.000000,600000.000000
600000.000000,600000.000000
" /> 
<path style="fill:#840000; fill-opacity:0.0; 
stroke:#840000; stroke-width:100.000000; stroke-opacity:1; 
stroke-linecap:round; stroke-linejoin:round;fill:none"
d="M 600000.000000,600000.000000
600000.000000,600000.000000
" /> 
<path style="fill:#840000; fill-opacity:0.0; 
stroke:#840000; stroke-width:100.000000; stroke-opacity:1; 
stroke-linecap:round; stroke-linejoin:round;fill:none"
d="M 600000.000000,600000.000000
600000.000000,600000.000000
" /> 
<path style="fill:#840000; fill-opacity:0.0; 
stroke:#840000; stroke-width:100.000000; stroke-opacity:1; 
stroke-linecap:round; stroke-linejoin:round;fill:none"
d="M 600000.000000,600000.000000
600000.000000,600000.000000
" /> 
<path style="fill:#840000; fill-opacity:0.0; 
stroke:#840000; stroke-width:100.000000; stroke-opacity:1; 
stroke-linecap:round; stroke-linejoin:round;fill:none"
d="M 600000.000000,600000.000000
600000.000000,600000.000000
" /> 
<path style="fill:#840000; fill-opacity:0.0; 
stroke:#840000; stroke-width:100.000000; stroke-opacity:1; 
stroke-linecap:round; stroke-linejoin:round;fill:none"
d="M 600000.000000,600000.000000
600000.000000,600000.000000
" /> 
<path style="fill:#840000; fill-opacity:0.0; 
stroke:#840000; stroke-width:100.000000; stroke-opacity:1; 
stroke-linecap:round; stroke-linejoin:round;fill:none"
d="M 600000.000000,600000.000000
600000.000000,600000.000000
" /> 
<path style="fill:#840000; fill-opacity:0.0; 
stroke:#840000; stroke-width:100.000000; stroke-opacity:1; 
stroke-linecap:round; stroke-linejoin:round;fill:none"
d="M 600000.000000,600000.000000
600000.000000,600000.000000
" /> 
<path style="fill:#840000; fill-opacity:0.0; 
stroke:#840000; stroke-width:100.000000; stroke-opacity:1; 
stroke-linecap:round; stroke-linejoin:round;fill:none"
d="M 600000.000000,600000.000000
600000.000000,600000.000000
" /> 
<path style="fill:#840000; fill-opacity:0.0; 
stroke:#840000; stroke-width:100.000000; stroke-opacity:1; 
stroke-linecap:round; stroke-linejoin:round;fill:none"
d="M 600000.000000,600000.000000
600000.000000,600000.000000
" /> 
<path style="fill:#840000; fill-opacity:0.0; 
stroke:#840000; stroke-width:100.000000; stroke-opacity:1; 
stroke-linecap:round; stroke-linejoin:round;fill:none"
d="M 600000.000000,600000.000000
600000.000000,600000.000000
" /> 
<path style="fill:#840000; fill-opacity:0.0; 
stroke:#840000; stroke-width:100.000000; stroke-opacity:1; 
stroke-linecap:round; stroke-linejoin:round;fill:none"
d="M 600000.000000,600000.000000
600000.000000,600000.000000
" /> 
<path style="fill:#840000; fill-opacity:0.0; 
stroke:#840000; stroke-width:100.000000; stroke-opacity:1; 
stroke-linecap:round; stroke-linejoin:round;fill:none"
d="M 600000.000000,600000.000000
600000.000000,600000.000000
" /> 
<path style="fill:#840000; fill-opacity:0.0; 
stroke:#840000; stroke-width:100.000000; stroke-opacity:1; 
stroke-linecap:round; stroke-linejoin:round;fill:none"
d="M 600000.000000,600000.000000
600000.000000,600000.000000
" /> 
<path style="fill:#840000; fill-opacity:0.0; 
stroke:#840000; stroke-width:100.000000; stroke-opacity:1; 
stroke-linecap:round; stroke-linejoin:round;fill:none"
d="M 600000.000000,600000.000000
600000.000000,600000.000000
" /> 
<circle cx="600000.000000" cy="600000.000000" r="200.000000" /> 
<circle cx="600000.000000" cy="600000.000000" r="200.000000" /> 
<circle cx="600000.000000" cy="600000.000000" r="200.000000" /> 
<circle cx="600000.000000" cy="600000.000000" r="200.000000" /> 
<circle cx="600000.000000" cy="600000.000000" r="200.000000" /> 
<circle cx="600000.000000" cy="600000.000000" r="200.000000" /> 
<circle cx="600000.000000" cy="600000.000000" r="200.000000" /> 
<circle cx="600000.000000" cy="600000.000000" r="200.000000" /> 
</g>
<g style="fill:#840000; fill-opacity:0.0; 
stroke:#840000; stroke-width:60.000000; stroke-opacity:1; 
stroke-linecap:round; stroke-linejoin:round;">
<path d="M600000 600000
L600000 600000
" />
</g>
<g style="fill:#006464; fill-opacity:0.0; 
stroke:#006464; stroke-width:60.000000; stroke-opacity:1; 
stroke-linecap:round; stroke-linejoin:round;">
<text x="600000.000000" y="600000.000000"
textLength="904.803150" font-size="666.653543" lengthAdjust="spacingAndGlyphs"
text-anchor="end" opacity="0">Y0</text>
<g class="stroked-text"><desc>Y0</desc>
<path d="M600000 600000
L600000 600000
" />
<path d="M600000 600000
L600000 600000
L600000 600000
" />
<path d="M600000 600000
L600000 600000
L600000 600000
L600000 600000
L600000 600000
L600000 600000
L600000 600000
L600000 600000
L600000 600000
L600000 600000
L600000 600000
L600000 600000
L600000 600000
L600000 600000
L600000 600000
L600000 600000
L600000 600000
L600000 600000
L600000 600000
L600000 600000
L600000 600000
" />
</g></g>
<g style="fill:#A90000; fill-opacity:0.0; 
stroke:#A90000; stroke-width:60.000000; stroke-opacity:1; 
stroke-linecap:round; stroke-linejoin:round;">
<text x="600000.000000" y="600000.000000"
textLength="536.181102" font-size="666.653543" lengthAdjust="spacingAndGlyphs"
text-anchor="middle" opacity="0">1</text>
<g class="stroked-text"><desc>1</desc>
<path d="M600000 600000
L600000 600000
" />
<path d="M600000 600000
L600000 600000
L600000 600000
L600000 600000
L600000 600000
" />
</g></g>
<g style="fill:#840000; fill-opacity:0.0; 
stroke:#840000; stroke-width:60.000000; stroke-opacity:1; 
stroke-linecap:round; stroke-linejoin:round;">
<path d="M600000 600000
L600000 600000
" />
</g>
<g style="fill:#006464; fill-opacity:0.0; 
stroke:#006464; stroke-width:60.000000; stroke-opacity:1; 
stroke-linecap:round; stroke-linejoin:round;">
<text x="600000.000000" y="600000.000000"
textLength="488.582677" font-size="666.653543" lengthAdjust="spacingAndGlyphs"
text-anchor="start" opacity="0">A</text>
<g class="stroked-text"><desc>A</desc>
<path d="M600000 600000
L600000 600000
" />
<path d="M600000 600000
L600000 600000
L600000 600000
" />
</g></g>
<g style="fill:#A90000; fill-opacity:0.0; 
stroke:#A90000; stroke-width:60.000000; stroke-opacity:1; 
stroke-linecap:round; stroke-linejoin:round;">
<text x="600000.000000" y="600000.000000"
textLength="1012.362205" font-size="666.653543" lengthAdjust="spacingAndGlyphs"
text-anchor="middle" opacity="0">10</text>
<g class="stroked-text"><desc>10</desc>
<path d="M600000 600000
L600000 600000
" />
<path d="M600000 600000
L600000 600000
L600000 600000
L600000 600000
L600000 600000
" />
<path d="M600000 600000
L600000 600000
L600000 600000
L600000 600000
L600000 600000
L600000 600000
L600000 600000
L600000 600000
L600000 600000
L600000 600000
L600000 600000
L600000 600000
L600000 600000
L600000 600000
L600000 600000
L600000 600000
L600000 600000
L600000 600000
L600000 600000
L600000 600000
L600000 600000
" />
</g></g>
<g style="fill:#840000; fill-opacity:0.0; 
stroke:#840000; stroke-width:60.000000; stroke-opacity:1; 
stroke-linecap:round; stroke-linejoin:round;">
<path d="M600000 600000
L600000 600000
" />
</g>
<g style="fill:#006464; fill-opacity:0.0; 
stroke:#006464; stroke-width:60.000000; stroke-opacity:1; 
stroke-linecap:round; stroke-linejoin:round;">
<text x="600000.000000" y="600000.000000"
textLength="1012.362205" font-size="666.653543" lengthAdjust="spacingAndGlyphs"
text-anchor="end" opacity="0">X3</text>
<g class="stroked-text"><desc>X3</desc>
<path d="M600000 600000
L600000 600000
" />
<path d="M600000 600000
L600000 600000
" />
<path d="M600000 600000
L600000 600000
L600000 600000
L600000 600000
L600000 600000
L600000 600000
L600000 600000
L600000 600000
L600000 600000
L600000 600000
L600000 600000
L600000 600000
L600000 600000
L600000 600000
" />
</g></g>
<g style="fill:#A90000; fill-opacity:0.0; 
stroke:#A90000; stroke-width:60.000000; stroke-opacity:1; 
stroke-linecap:round; stroke-linejoin:round;">
<text x="600000.000000" y="600000.000000"
textLength="1012.362205" font-size="666.653543" lengthAdjust="spacingAndGlyphs"
text-anchor="middle" opacity="0">11</text>
<g class="stroked-text"><desc>11</desc>
<path d="M600000 600000
L600000 600000
" />
<path d="M600000 600000
L600000 600000
L600000 600000
L600000 600000
L600000 600000
" />
<path d="M600000 600000
L600000 600000
" />
<path d="M600000 600000
L600000 600000
L600000 600000
L600000 600000
L600000 600000
" />
</g></g>
<g style="fill:#840000; fill-opacity:0.0; 
stroke:#840000; stroke-width:60.000000; stroke-opacity:1; 
stroke-linecap:round; stroke-linejoin:round;">
<path d="M600000 600000
L600000 600000
" />
</g>
<g style="fill:#006464; fill-opacity:0.0; 
stroke:#006464; stroke-width:60.000000; stroke-opacity:1; 
stroke-linecap:round; stroke-linejoin:round;">
<text x="600000.000000" y="600000.000000"
textLength="1012.362205" font-size="666.653543" lengthAdjust="spacingAndGlyphs"
text-anchor="end" opacity="0">X0</text>
<g class="stroked-text"><desc>X0</desc>
<path d="M600000 600000
L600000 600000
" />
<path d="M600000 600000
L600000 600000
" />
<path d="M600000 600000
L600000 600000
L600000 600000
L600000 600000
L600000 600000
L600000 600000
L600000 600000
L600000 600000
L600000 600000
L600000 600000
L600000 600000
L600000 600000
L600000 600000
L600000 600000
L600000 600000
L600000 600000
L600000 600000
L600000 600000
L600000 600000
L600000 600000
L600000 600000
" />
</g></g>
<g style="fill:#A90000; fill-opacity:0.0; 
stroke:#A90000; stroke-width:60.000000; stroke-opacity:1; 
stroke-linecap:round; stroke-linejoin:round;">
<text x="600000.000000" y="600000.000000"
textLength="1012.362205" font-size="666.653543" lengthAdjust="spacingAndGlyphs"
text-anchor="middle" opacity="0">12</text>
<g class="stroked-text"><desc>12</desc>
<path d="M600000 600000
L600000 600000
" />
<path d="M600000 600000
L600000 600000
L600000 600000
L600000 600000
L600000 600000
" />
<path d="M600000 600000
L600000 600000
L600000 600000
L600000 600000
L600000 600000
L600000 600000
L600000 600000
L600000 600000
L600000 600000
L600000 600000
L600000 600000
" />
</g></g>
<g style="fill:#840000; fill-opacity:0.0; 
stroke:#840000; stroke-width:60.000000; stroke-opacity:1; 
stroke-linecap:round; stroke-linejoin:round;">
<path d="M600000 600000
L600000 600000
" />
</g>
<g style="fill:#006464; fill-opacity:0.0; 
stroke:#006464; stroke-width:60.000000; stroke-opacity:1; 
stroke-linecap:round; stroke-linejoin:round;">
<text x="600000.000000" y="600000.000000"
textLength="536.181102" font-size="666.653543" lengthAdjust="spacingAndGlyphs"
text-anchor="start" opacity="0">X</text>
<g class="stroked-text"><desc>X</desc>
<path d="M600000 600000
L600000 600000
" />
<path d="M600000 600000
L600000 600000
" />
</g></g>
<g style="fill:#A90000; fill-opacity:0.0; 
stroke:#A90000; stroke-width:60.000000; stroke-opacity:1; 
stroke-linecap:round; stroke-linejoin:round;">
<text x="600000.000000" y="600000.000000"
textLength="1012.362205" font-size="666.653543" lengthAdjust="spacingAndGlyphs"
text-anchor="middle" opacity="0">13</text>
<g class="stroked-text"><desc>13</desc>
<path d="M600000 600000
L600000 600000
" />
<path d="M600000 600000
L600000 600000
L600000 600000
L600000 600000
L600000 600000
" />
<path d="M600000 600000
L600000 600000
L600000 600000
L600000 600000
L600000 600000
L600000 600000
L600000 600000
L600000 600000
L600000 600000
L600000 600000
L600000 600000
L600000 600000
L600000 600000
L600000 600000
" />
</g></g>
<g style="fill:#840000; fill-opacity:0.0; 
stroke:#840000; stroke-width:60.000000; stroke-opacity:1; 
stroke-linecap:round; stroke-linejoin:round;">
<path d="M600000 600000
L600000 600000
" />
</g>
<g style="fill:#006464; fill-opacity:0.0; 
stroke:#006464; stroke-width:60.000000; stroke-opacity:1; 
stroke-linecap:round; stroke-linejoin:round;">
<text x="600000.000000" y="600000.000000"
textLength="1012.362205" font-size="666.653543" lengthAdjust="spacingAndGlyphs"
text-anchor="end" opacity="0">X1</text>
<g class="stroked-text"><desc>X1</desc>
<path d="M600000 600000
L600000 600000
" />
<path d="M600000 600000
L600000 600000
" />
<path d="M600000 600000
L600000 600000
" />
<path d="M600000 600000
L600000 600000
L600000 600000
L600000 600000
L600000 600000
" />
</g></g>
<g style="fill:#A90000; fill-opacity:0.0; 
stroke:#A90000; stroke-width:60.000000; stroke-opacity:1; 
stroke-linecap:round; stroke-linejoin:round;">
<text x="600000.000000" y="600000.000000"
textLength="1012.362205" font-size="666.653543" lengthAdjust="spacingAndGlyphs"
text-anchor="middle" opacity="0">14</text>
<g class="stroked-text"><desc>14</desc>
<path d="M600000 600000
L600000 600000
" />
<path d="M600000 600000
L600000 600000
L600000 600000
L600000 600000
L600000 600000
" />
<path d="M600000 600000
L600000 600000
" />
<path d="M600000 600000
L600000 600000
L600000 600000
" />
</g></g>
<g style="fill:#840000; fill-opacity:0.0; 
stroke:#840000; stroke-width:60.000000; stroke-opacity:1; 
stroke-linecap:round; stroke-linejoin:round;">
<path d="M600000 600000
L600000 600000
" />
</g>
<g style="fill:#006464; fill-opacity:0.0; 
stroke:#006464; stroke-width:60.000000; stroke-opacity:1; 
stroke-linecap:round; stroke-linejoin:round;">
<text x="600000.000000" y="600000.000000"
textLength="1012.362205" font-size="666.653543" lengthAdjust="spacingAndGlyphs"
text-anchor="end" opacity="0">X2</text>
<g class="stroked-text"><desc>X2</desc>
<path d="M600000 600000
L600000 600000
" />
<path d="M600000 600000
L600000 600000
" />
<path d="M600000 600000
L600000 600000
L600000 600000
L600000 600000
L600000 600000
L600000 600000
L600000 600000
L600000 600000
L600000 600000
L600000 600000
L600000 600000
" />
</g></g>
<g style="fill:#A90000; fill-opacity:0.0; 
stroke:#A90000; stroke-width:60.000000; stroke-opacity:1; 
stroke-linecap:round; stroke-linejoin:round;">
<text x="600000.000000" y="600000.000000"
textLength="1012.362205" font-size="666.653543" lengthAdjust="spacingAndGlyphs"
text-anchor="middle" opacity="0">15</text>
<g class="stroked-text"><desc>15</desc>
<path d="M600000 600000
L600000 600000
" />
<path d="M600000 600000
L600000 600000
L600000 600000
L600000 600000
L600000 600000
" />
<path d="M600000 600000
L600000 600000
L600000 600000
L600000 600000
L600000 600000
L600000 600000
L600000 600000
L600000 600000
L600000 600000
L600000 600000
L600000 600000
L600000 600000
L600000 600000
L600000 600000
L600000 600000
L600000 600000
" />
</g></g>
<g style="fill:#840000; fill-opacity:0.0; 
stroke:#840000; stroke-width:60.000000; stroke-opacity:1; 
stroke-linecap:round; stroke-linejoin:round;">
<path d="M600000 600000
L600000 600000
" />
</g>
<g style="fill:#006464; fill-opacity:0.0; 
stroke:#006464; stroke-width:60.000000; stroke-opacity:1; 
stroke-linecap:round; stroke-linejoin:round;">
<g transform="rotate(-90.000000 600000.000000 600000.000000)">
<text x="600000.000000" y="600000.000000"
textLength="1488.582677" font-size="666.653543" lengthAdjust="spacingAndGlyphs"
text-anchor="end" opacity="0">VDD</text>
</g>
<g class="stroked-text"><desc>VDD</desc>
<path d="M600000 600000
L600000 600000
L600000 600000
" />
<path d="M600000 600000
L600000 600000
L600000 600000
L600000 600000
L600000 600000
L600000 600000
L600000 600000
L600000 600000
L600000 600000
L600000 600000
L600000 600000
L600000 600000
L600000 600000
" />
<path d="M600000 600000
L600000 600000
L600000 600000
L600000 600000
L600000 600000
L600000 600000
L600000 600000
L600000 600000
L600000 600000
L600000 600000
L600000 600000
L600000 600000
L600000 600000
" />
</g></g>
<g style="fill:#A90000; fill-opacity:0.0; 
stroke:#A90000; stroke-width:60.000000; stroke-opacity:1; 
stroke-linecap:round; stroke-linejoin:round;">
<g transform="rotate(-90.000000 600000.000000 600000.000000)">
<text x="600000.000000" y="600000.000000"
textLength="1012.362205" font-size="666.653543" lengthAdjust="spacingAndGlyphs"
text-anchor="middle" opacity="0">16</text>
</g>
<g class="stroked-text"><desc>16</desc>
<path d="M600000 600000
L600000 600000
" />
<path d="M600000 600000
L600000 600000
L600000 600000
L600000 600000
L600000 600000
" />
<path d="M600000 600000
L600000 600000
L600000 600000
L600000 600000
L600000 600000
L600000 600000
L600000 600000
L600000 600000
L600000 600000
L600000 600000
L600000 600000
L600000 600000
L600000 600000
L600000 600000
L600000 600000
L600000 600000
L600000 600000
L600000 600000
L600000 600000
L600000 600000
L600000 600000
L600000 600000
" />
</g></g>
<g style="fill:#840000; fill-opacity:0.0; 
stroke:#840000; stroke-width:60.000000; stroke-opacity:1; 
stroke-linecap:round; stroke-linejoin:round;">
<path d="M600000 600000
L600000 600000
" />
</g>
<g style="fill:#006464; fill-opacity:0.0; 
stroke:#006464; stroke-width:60.000000; stroke-opacity:1; 
stroke-linecap:round; stroke-linejoin:round;">
<text x="600000.000000" y="600000.000000"
textLength="964.763780" font-size="666.653543" lengthAdjust="spacingAndGlyphs"
text-anchor="end" opacity="0">Y2</text>
<g class="stroked-text"><desc>Y2</desc>
<path d="M600000 600000
L600000 600000
" />
<path d="M600000 600000
L600000 600000
L600000 600000
" />
<path d="M600000 600000
L600000 600000
L600000 600000
L600000 600000
L600000 600000
L600000 600000
L600000 600000
L600000 600000
L600000 600000
L600000 600000
L600000 600000
" />
</g></g>
<g style="fill:#A90000; fill-opacity:0.0; 
stroke:#A90000; stroke-width:60.000000; stroke-opacity:1; 
stroke-linecap:round; stroke-linejoin:round;">
<text x="600000.000000" y="600000.000000"
textLength="536.181102" font-size="666.653543" lengthAdjust="spacingAndGlyphs"
text-anchor="middle" opacity="0">2</text>
<g class="stroked-text"><desc>2</desc>
<path d="M600000 600000
L600000 600000
L600000 600000
L600000 600000
L600000 600000
L600000 600000
L600000 600000
L600000 600000
L600000 600000
L600000 600000
L600000 600000
" />
</g></g>
<g style="fill:#840000; fill-opacity:0.0; 
stroke:#840000; stroke-width:60.000000; stroke-opacity:1; 
stroke-linecap:round; stroke-linejoin:round;">
<path d="M600000 600000
L600000 600000
" />
</g>
<g style="fill:#006464; fill-opacity:0.0; 
stroke:#006464; stroke-width:60.000000; stroke-opacity:1; 
stroke-linecap:round; stroke-linejoin:round;">
<text x="600000.000000" y="600000.000000"
textLength="488.582677" font-size="666.653543" lengthAdjust="spacingAndGlyphs"
text-anchor="start" opacity="0">Y</text>
<g class="stroked-text"><desc>Y</desc>
<path d="M600000 600000
L600000 600000
" />
<path d="M600000 600000
L600000 600000
L600000 600000
" />
</g></g>
<g style="fill:#A90000; fill-opacity:0.0; 
stroke:#A90000; stroke-width:60.000000; stroke-opacity:1; 
stroke-linecap:round; stroke-linejoin:round;">
<text x="600000.000000" y="600000.000000"
textLength="536.181102" font-size="666.653543" lengthAdjust="spacingAndGlyphs"
text-anchor="middle" opacity="0">3</text>
<g class="stroked-text"><desc>3</desc>
<path d="M600000 600000
L600000 600000
L600000 600000
L600000 600000
L600000 600000
L600000 600000
L600000 600000
L600000 600000
L600000 600000
L600000 600000
L600000 600000
L600000 600000
L600000 600000
L600000 600000
" />
</g></g>
<g style="fill:#840000; fill-opacity:0.0; 
stroke:#840000; stroke-width:60.000000; stroke-opacity:1; 
stroke-linecap:round; stroke-linejoin:round;">
<path d="M600000 600000
L600000 600000
" />
</g>
<g style="fill:#006464; fill-opacity:0.0; 
stroke:#006464; stroke-width:60.000000; stroke-opacity:1; 
stroke-linecap:round; stroke-linejoin:round;">
<text x="600000.000000" y="600000.000000"
textLength="964.763780" font-size="666.653543" lengthAdjust="spacingAndGlyphs"
text-anchor="end" opacity="0">Y3</text>
<g class="stroked-text"><desc>Y3</desc>
<path d="M600000 600000
L600000 600000
" />
<path d="M600000 600000
L600000 600000
L600000 600000
" />
<path d="M600000 600000
L600000 600000
L600000 600000
L600000 600000
L600000 600000
L600000 600000
L600000 600000
L600000 600000
L600000 600000
L600000 600000
L600000 600000
L600000 600000
L600000 600000
L600000 600000
" />
</g></g>
<g style="fill:#A90000; fill-opacity:0.0; 
stroke:#A90000; stroke-width:60.000000; stroke-opacity:1; 
stroke-linecap:round; stroke-linejoin:round;">
<text x="600000.000000" y="600000.000000"
textLength="536.181102" font-size="666.653543" lengthAdjust="spacingAndGlyphs"
text-anchor="middle" opacity="0">4</text>
<g class="stroked-text"><desc>4</desc>
<path d="M600000 600000
L600000 600000
" />
<path d="M600000 600000
L600000 600000
L600000 600000
" />
</g></g>
<g style="fill:#840000; fill-opacity:0.0; 
stroke:#840000; stroke-width:60.000000; stroke-opacity:1; 
stroke-linecap:round; stroke-linejoin:round;">
<path d="M600000 600000
L600000 600000
" />
</g>
<g style="fill:#006464; fill-opacity:0.0; 
stroke:#006464; stroke-width:60.000000; stroke-opacity:1; 
stroke-linecap:round; stroke-linejoin:round;">
<text x="600000.000000" y="600000.000000"
textLength="964.763780" font-size="666.653543" lengthAdjust="spacingAndGlyphs"
text-anchor="end" opacity="0">Y1</text>
<g class="stroked-text"><desc>Y1</desc>
<path d="M600000 600000
L600000 600000
" />
<path d="M600000 600000
L600000 600000
L600000 600000
" />
<path d="M600000 600000
L600000 600000
" />
<path d="M600000 600000
L600000 600000
L600000 600000
L600000 600000
L600000 600000
" />
</g></g>
<g style="fill:#A90000; fill-opacity:0.0; 
stroke:#A90000; stroke-width:60.000000; stroke-opacity:1; 
stroke-linecap:round; stroke-linejoin:round;">
<text x="600000.000000" y="600000.000000"
textLength="536.181102" font-size="666.653543" lengthAdjust="spacingAndGlyphs"
text-anchor="middle" opacity="0">5</text>
<g class="stroked-text"><desc>5</desc>
<path d="M600000 600000
L600000 600000
L600000 600000
L600000 600000
L600000 600000
L600000 600000
L600000 600000
L600000 600000
L600000 600000
L600000 600000
L600000 600000
L600000 600000
L600000 600000
L600000 600000
L600000 600000
L600000 600000
" />
</g></g>
<g style="fill:#840000; fill-opacity:0.0; 
stroke:#840000; stroke-width:60.000000; stroke-opacity:1; 
stroke-linecap:round; stroke-linejoin:round;">
<path d="M600000 600000
L600000 600000
" />
</g>
<g style="fill:#006464; fill-opacity:0.0; 
stroke:#006464; stroke-width:60.000000; stroke-opacity:1; 
stroke-linecap:round; stroke-linejoin:round;">
<text x="600000.000000" y="600000.000000"
textLength="1345.708661" font-size="666.653543" lengthAdjust="spacingAndGlyphs"
text-anchor="start" opacity="0">INH</text>
<g class="stroked-text"><desc>INH</desc>
<path d="M600000 600000
L600000 600000
" />
<path d="M600000 600000
L600000 600000
L600000 600000
L600000 600000
" />
<path d="M600000 600000
L600000 600000
" />
<path d="M600000 600000
L600000 600000
" />
<path d="M600000 600000
L600000 600000
" />
</g></g>
<g style="fill:#A90000; fill-opacity:0.0; 
stroke:#A90000; stroke-width:60.000000; stroke-opacity:1; 
stroke-linecap:round; stroke-linejoin:round;">
<text x="600000.000000" y="600000.000000"
textLength="536.181102" font-size="666.653543" lengthAdjust="spacingAndGlyphs"
text-anchor="middle" opacity="0">6</text>
<g class="stroked-text"><desc>6</desc>
<path d="M600000 600000
L600000 600000
L600000 600000
L600000 600000
L600000 600000
L600000 600000
L600000 600000
L600000 600000
L600000 600000
L600000 600000
L600000 600000
L600000 600000
L600000 600000
L600000 600000
L600000 600000
L600000 600000
L600000 600000
L600000 600000
L600000 600000
L600000 600000
L600000 600000
L600000 600000
" />
</g></g>
<g style="fill:#840000; fill-opacity:0.0; 
stroke:#840000; stroke-width:60.000000; stroke-opacity:1; 
stroke-linecap:round; stroke-linejoin:round;">
<path d="M600000 600000
L600000 600000
" />
</g>
<g style="fill:#006464; fill-opacity:0.0; 
stroke:#006464; stroke-width:60.000000; stroke-opacity:1; 
stroke-linecap:round; stroke-linejoin:round;">
<g transform="rotate(-90.000000 600000.000000 600000.000000)">
<text x="600000.000000" y="600000.000000"
textLength="1393.346457" font-size="666.653543" lengthAdjust="spacingAndGlyphs"
text-anchor="start" opacity="0">VEE</text>
</g>
<g class="stroked-text"><desc>VEE</desc>
<path d="M600000 600000
L600000 600000
L600000 600000
" />
<path d="M600000 600000
L600000 600000
" />
<path d="M600000 600000
L600000 600000
L600000 600000
L600000 600000
" />
<path d="M600000 600000
L600000 600000
" />
<path d="M600000 600000
L600000 600000
L600000 600000
L600000 600000
" />
</g></g>
<g style="fill:#A90000; fill-opacity:0.0; 
stroke:#A90000; stroke-width:60.000000; stroke-opacity:1; 
stroke-linecap:round; stroke-linejoin:round;">
<g transform="rotate(-90.000000 600000.000000 600000.000000)">
<text x="600000.000000" y="600000.000000"
textLength="536.181102" font-size="666.653543" lengthAdjust="spacingAndGlyphs"
text-anchor="middle" opacity="0">7</text>
</g>
<g class="stroked-text"><desc>7</desc>
<path d="M600000 600000
L600000 600000
L600000 600000
" />
</g></g>
<g style="fill:#840000; fill-opacity:0.0; 
stroke:#840000; stroke-width:60.000000; stroke-opacity:1; 
stroke-linecap:round; stroke-linejoin:round;">
<path d="M600000 600000
L600000 600000
" />
</g>
<g style="fill:#006464; fill-opacity:0.0; 
stroke:#006464; stroke-width:60.000000; stroke-opacity:1; 
stroke-linecap:round; stroke-linejoin:round;">
<g transform="rotate(-90.000000 600000.000000 600000.000000)">
<text x="600000.000000" y="600000.000000"
textLength="1440.944882" font-size="666.653543" lengthAdjust="spacingAndGlyphs"
text-anchor="start" opacity="0">VSS</text>
</g>
<g class="stroked-text"><desc>VSS</desc>
<path d="M600000 600000
L600000 600000
L600000 600000
" />
<path d="M600000 600000
L600000 600000
L600000 600000
L600000 600000
L600000 600000
L600000 600000
L600000 600000
L600000 600000
L600000 600000
L600000 600000
L600000 600000
L600000 600000
L600000 600000
L600000 600000
L600000 600000
L600000 600000
L600000 600000
L600000 600000
L600000 600000
L600000 600000
" />
<path d="M600000 600000
L600000 600000
L600000 600000
L600000 600000
L600000 600000
L600000 600000
L600000 600000
L600000 600000
L600000 600000
L600000 600000
L600000 600000
L600000 600000
L600000 600000
L600000 600000
L600000 600000
L600000 600000
L600000 600000
L600000 600000
L600000 600000
L600000 600000
" />
</g></g>
<g style="fill:#A90000; fill-opacity:0.0; 
stroke:#A90000; stroke-width:60.000000; stroke-opacity:1; 
stroke-linecap:round; stroke-linejoin:round;">
<g transform="rotate(-90.000000 600000.000000 600000.000000)">
<text x="600000.000000" y="600000.000000"
textLength="536.181102" font-size="666.653543" lengthAdjust="spacingAndGlyphs"
text-anchor="middle" opacity="0">8</text>
</g>
<g class="stroked-text"><desc>8</desc>
<path d="M600000 600000
L600000 600000
L600000 600000
L600000 600000
L600000 600000
L600000 600000
L600000 600000
L600000 600000
L600000 600000
L600000 600000
L600000 600000
L600000 600000
L600000 600000
L600000 600000
L600000 600000
L600000 600000
L600000 600000
L600000 600000
L600000 600000
L600000 600000
L600000 600000
L600000 600000
L600000 600000
L600000 600000
L600000 600000
L600000 600000
L600000 600000
L600000 600000
L600000 600000
L600000 600000
L600000 600000
L600000 600000
" />
</g></g>
<g style="fill:#840000; fill-opacity:0.0; 
stroke:#840000; stroke-width:60.000000; stroke-opacity:1; 
stroke-linecap:round; stroke-linejoin:round;">
<path d="M600000 600000
L600000 600000
" />
</g>
<g style="fill:#006464; fill-opacity:0.0; 
stroke:#006464; stroke-width:60.000000; stroke-opacity:1; 
stroke-linecap:round; stroke-linejoin:round;">
<text x="600000.000000" y="600000.000000"
textLength="560.000000" font-size="666.653543" lengthAdjust="spacingAndGlyphs"
text-anchor="start" opacity="0">B</text>
<g class="stroked-text"><desc>B</desc>
<path d="M600000 600000
L600000 600000
L600000 600000
L600000 600000
L600000 600000
L600000 600000
L600000 600000
L600000 600000
L600000 600000
L600000 600000
L600000 600000
L600000 600000
L600000 600000
L600000 600000
L600000 600000
L600000 600000
L600000 600000
L600000 600000
L600000 600000
" />
</g></g>
<g style="fill:#A90000; fill-opacity:0.0; 
stroke:#A90000; stroke-width:60.000000; stroke-opacity:1; 
stroke-linecap:round; stroke-linejoin:round;">
<text x="600000.000000" y="600000.000000"
textLength="536.181102" font-size="666.653543" lengthAdjust="spacingAndGlyphs"
text-anchor="middle" opacity="0">9</text>
<g class="stroked-text"><desc>9</desc>
<path d="M600000 600000
L600000 600000
L600000 600000
L600000 600000
L600000 600000
L600000 600000
L600000 600000
L600000 600000
L600000 600000
L600000 600000
L600000 600000
L600000 600000
L600000 600000
L600000 600000
L600000 600000
L600000 600000
L600000 600000
L600000 600000
L600000 600000
L600000 600000
L600000 600000
L600000 600000
" />
</g></g>
<g style="fill:#840084; fill-opacity:0.0; 
stroke:#840084; stroke-width:60.000000; stroke-opacity:1; 
stroke-linecap:round; stroke-linejoin:round;">
</g>
<g style="fill:#006464; fill-opacity:0.0; 
stroke:#006464; stroke-width:60.000000; stroke-opacity:1; 
stroke-linecap:round; stroke-linejoin:round;">
</g>
<g style="fill:#006464; fill-opacity:0.0; 
stroke:#006464; stroke-width:62.519685; stroke-opacity:1; 
stroke-linecap:round; stroke-linejoin:round;">
<text x="600000.000000" y="600000.000000"
textLength="1012.362205" font-size="666.653543" lengthAdjust="spacingAndGlyphs"
text-anchor="middle" opacity="0">U?</text>
<g class="stroked-text"><desc>U?</desc>
<path d="M600000 600000
L600000 600000
L600000 600000
L600000 600000
L600000 600000
L600000 600000
L600000 600000
L600000 600000
L600000 600000
L600000 600000
" />
<path d="M600000 600000
L600000 600000
L600000 600000
L600000 600000
L600000 600000
L600000 600000
" />
<path d="M600000 600000
L600000 600000
L600000 600000
L600000 600000
L600000 600000
L600000 600000
L600000 600000
L600000 600000
L600000 600000
L600000 600000
L600000 600000
L600000 600000
" />
</g><text x="600000.000000" y="600000.000000"
textLength="3467.283465" font-size="666.653543" lengthAdjust="spacingAndGlyphs"
text-anchor="middle" opacity="0">CD4052B</text>
<g class="stroked-text"><desc>CD4052B</desc>
<path d="M600000 600000
L600000 600000
L600000 600000
L600000 600000
L600000 600000
L600000 600000
L600000 600000
L600000 600000
L600000 600000
L600000 600000
L600000 600000
L600000 600000
L600000 600000
L600000 600000
L600000 600000
L600000 600000
" />
<path d="M600000 600000
L600000 600000
L600000 600000
L600000 600000
L600000 600000
L600000 600000
L600000 600000
L600000 600000
L600000 600000
L600000 600000
L600000 600000
L600000 600000
L600000 600000
" />
<path d="M600000 600000
L600000 600000
" />
<path d="M600000 600000
L600000 600000
L600000 600000
" />
<path d="M600000 600000
L600000 600000
L600000 600000
L600000 600000
L600000 600000
L600000 600000
L600000 600000
L600000 600000
L600000 600000
L600000 600000
L600000 600000
L600000 600000
L600000 600000
L600000 600000
L600000 600000
L600000 600000
L600000 600000
L600000 600000
L600000 600000
L600000 600000
L600000 600000
" />
<path d="M600000 600000
L600000 600000
L600000 600000
L600000 600000
L600000 600000
L600000 600000
L600000 600000
L600000 600000
L600000 600000
L600000 600000
L600000 600000
L600000 600000
L600000 600000
L600000 600000
L600000 600000
L600000 600000
" />
<path d="M600000 600000
L600000 600000
L600000 600000
L600000 600000
L600000 600000
L600000 600000
L600000 600000
L600000 600000
L600000 600000
L600000 600000
L600000 600000
" />
<path d="M600000 600000
L600000 600000
L600000 600000
L600000 600000
L600000 600000
L600000 600000
L600000 600000
L600000 600000
L600000 600000
L600000 600000
L600000 600000
L600000 600000
L600000 600000
L600000 600000
L600000 600000
L600000 600000
L600000 600000
L600000 600000
L600000 600000
" />
</g></g>
<g style="fill:#840084; fill-opacity:0.0; 
stroke:#840084; stroke-width:62.519685; stroke-opacity:1; 
stroke-linecap:round; stroke-linejoin:round;">
<text x="600000.000000" y="600000.000000"
textLength="18157.755906" font-size="666.653543" lengthAdjust="spacingAndGlyphs"
text-anchor="middle" opacity="0">http://www.ti.com/lit/ds/symlink/cd4052b.pdf</text>
<g class="stroked-text"><desc>http://www.ti.com/lit/ds/symlink/cd4052b.pdf</desc>
<path d="M600000 600000
L600000 600000
" />
<path d="M600000 600000
L600000 600000
L600000 600000
L600000 600000
L600000 600000
L600000 600000
L600000 600000
" />
<path d="M600000 600000
L600000 600000
" />
<path d="M600000 600000
L600000 600000
L600000 600000
L600000 600000
L600000 600000
" />
<path d="M600000 600000
L600000 600000
" />
<path d="M600000 600000
L600000 600000
L600000 600000
L600000 600000
L600000 600000
" />
<path d="M600000 600000
L600000 600000
" />
<path d="M600000 600000
L600000 600000
L600000 600000
L600000 600000
L600000 600000
L600000 600000
L600000 600000
L600000 600000
L600000 600000
L600000 600000
L600000 600000
L600000 600000
" />
<path d="M600000 600000
L600000 600000
L600000 600000
L600000 600000
L600000 600000
L600000 600000
" />
<path d="M600000 600000
L600000 600000
L600000 600000
L600000 600000
L600000 600000
L600000 600000
" />
<path d="M600000 600000
L600000 600000
" />
<path d="M600000 600000
L600000 600000
" />
<path d="M600000 600000
L600000 600000
L600000 600000
L600000 600000
L600000 600000
" />
<path d="M600000 600000
L600000 600000
L600000 600000
L600000 600000
L600000 600000
" />
<path d="M600000 600000
L600000 600000
L600000 600000
L600000 600000
L600000 600000
" />
<path d="M600000 600000
L600000 600000
L600000 600000
L600000 600000
L600000 600000
L600000 600000
" />
<path d="M600000 600000
L600000 600000
" />
<path d="M600000 600000
L600000 600000
L600000 600000
L600000 600000
L600000 600000
" />
<path d="M600000 600000
L600000 600000
" />
<path d="M600000 600000
L600000 600000
L600000 600000
L600000 600000
L600000 600000
L600000 600000
" />
<path d="M600000 600000
L600000 600000
L600000 600000
L600000 600000
L600000 600000
L600000 600000
" />
<path d="M600000 600000
L600000 600000
L600000 600000
L600000 600000
L600000 600000
L600000 600000
L600000 600000
L600000 600000
L600000 600000
L600000 600000
L600000 600000
L600000 600000
" />
<path d="M600000 600000
L600000 600000
L600000 600000
L600000 600000
L600000 600000
L600000 600000
L600000 600000
L600000 600000
L600000 600000
L600000 600000
L600000 600000
L600000 600000
L600000 600000
L600000 600000
L600000 600000
L600000 600000
L600000 600000
" />
<path d="M600000 600000
L600000 600000
" />
<path d="M600000 600000
L600000 600000
L600000 600000
L600000 600000
L600000 600000
L600000 600000
L600000 600000
" />
<path d="M600000 600000
L600000 600000
L600000 600000
L600000 600000
L600000 600000
L600000 600000
L600000 600000
" />
<path d="M600000 600000
L600000 600000
" />
<path d="M600000 600000
L600000 600000
L600000 600000
L600000 600000
" />
<path d="M600000 600000
L600000 600000
" />
<path d="M600000 600000
L600000 600000
L600000 600000
L600000 600000
L600000 600000
L600000 600000
" />
<path d="M600000 600000
L600000 600000
" />
<path d="M600000 600000
L600000 600000
L600000 600000
L600000 600000
L600000 600000
" />
<path d="M600000 600000
L600000 600000
" />
<path d="M600000 600000
L600000 600000
" />
<path d="M600000 600000
L600000 600000
L600000 600000
L600000 600000
L600000 600000
L600000 600000
L600000 600000
L600000 600000
L600000 600000
L600000 600000
L600000 600000
L600000 600000
" />
<path d="M600000 600000
L600000 600000
L600000 600000
L600000 600000
L600000 600000
L600000 600000
L600000 600000
L600000 600000
L600000 600000
L600000 600000
L600000 600000
L600000 600000
L600000 600000
L600000 600000
L600000 600000
L600000 600000
" />
<path d="M600000 600000
L600000 600000
" />
<path d="M600000 600000
L600000 600000
L600000 600000
L600000 600000
L600000 600000
L600000 600000
L600000 600000
L600000 600000
L600000 600000
L600000 600000
L600000 600000
L600000 600000
L600000 600000
L600000 600000
L600000 600000
L600000 600000
" />
<path d="M600000 600000
L600000 600000
" />
<path d="M600000 600000
L600000 600000
L600000 600000
L600000 600000
L600000 600000
" />
<path d="M600000 600000
L600000 600000
" />
<path d="M600000 600000
L600000 600000
L600000 600000
L600000 600000
L600000 600000
L600000 600000
L600000 600000
" />
<path d="M600000 600000
L600000 600000
L600000 600000
L600000 600000
L600000 600000
L600000 600000
L600000 600000
" />
<path d="M600000 600000
L600000 600000
L600000 600000
L600000 600000
" />
<path d="M600000 600000
L600000 600000
" />
<path d="M600000 600000
L600000 600000
L600000 600000
L600000 600000
L600000 600000
L600000 600000
" />
<path d="M600000 600000
L600000 600000
" />
<path d="M600000 600000
L600000 600000
L600000 600000
L600000 600000
L600000 600000
L600000 600000
L600000 600000
" />
<path d="M600000 600000
L600000 600000
" />
<path d="M600000 600000
L600000 600000
" />
<path d="M600000 600000
L600000 600000
" />
<path d="M600000 600000
L600000 600000
" />
<path d="M600000 600000
L600000 600000
L600000 600000
L600000 600000
L600000 600000
L600000 600000
L600000 600000
L600000 600000
L600000 600000
L600000 600000
L600000 600000
L600000 600000
" />
<path d="M600000 600000
L600000 600000
" />
<path d="M600000 600000
L600000 600000
L600000 600000
L600000 600000
L600000 600000
L600000 600000
L600000 600000
L600000 600000
L600000 600000
L600000 600000
L600000 600000
L600000 600000
" />
<path d="M600000 600000
L600000 600000
" />
<path d="M600000 600000
L600000 600000
L600000 600000
" />
<path d="M600000 600000
L600000 600000
L600000 600000
L600000 600000
L600000 600000
L600000 600000
L600000 600000
L600000 600000
L600000 600000
L600000 600000
L600000 600000
L600000 600000
L600000 600000
L600000 600000
L600000 600000
L600000 600000
L600000 600000
L600000 600000
L600000 600000
L600000 600000
L600000 600000
" />
<path d="M600000 600000
L600000 600000
L600000 600000
L600000 600000
L600000 600000
L600000 600000
L600000 600000
L600000 600000
L600000 600000
L600000 600000
L600000 600000
L600000 600000
L600000 600000
L600000 600000
L600000 600000
L600000 600000
" />
<path d="M600000 600000
L600000 600000
L600000 600000
L600000 600000
L600000 600000
L600000 600000
L600000 600000
L600000 600000
L600000 600000
L600000 600000
L600000 600000
" />
<path d="M600000 600000
L600000 600000
" />
<path d="M600000 600000
L600000 600000
L600000 600000
L600000 600000
L600000 600000
L600000 600000
L600000 600000
L600000 600000
L600000 600000
L600000 600000
L600000 600000
L600000 600000
" />
<path d="M600000 600000
L600000 600000
L600000 600000
L600000 600000
L600000 600000
L600000 600000
" />
<path d="M600000 600000
L600000 600000
" />
<path d="M600000 600000
L600000 600000
L600000 600000
L600000 600000
L600000 600000
L600000 600000
L600000 600000
L600000 600000
L600000 600000
L600000 600000
L600000 600000
L600000 600000
" />
<path d="M600000 600000
L600000 600000
" />
<path d="M600000 600000
L600000 600000
L600000 600000
L600000 600000
L600000 600000
L600000 600000
L600000 600000
L600000 600000
L600000 600000
L600000 600000
L600000 600000
L600000 600000
" />
<path d="M600000 600000
L600000 600000
" />
<path d="M600000 600000
L600000 600000
L600000 600000
L600000 600000
L600000 600000
" />
</g></g> 
</svg>
