<?xml version="1.0" standalone="no"?>
 <!DOCTYPE svg PUBLIC "-//W3C//DTD SVG 1.1//EN" 
 "http://www.w3.org/Graphics/SVG/1.1/DTD/svg11.dtd"> 
<svg
  xmlns:svg="http://www.w3.org/2000/svg"
  xmlns="http://www.w3.org/2000/svg"
  xmlns:xlink="http://www.w3.org/1999/xlink"
  version="1.1"
  width="1045.164280cm" height="1277.127240cm" viewBox="0 0 4114820 5028060">
<title>SVG Picture created as 74LS32.svg date 2022/02/19 15:06:40 </title>
  <desc>Picture generated by Eeschema-SVG </desc>
<g style="fill:#000000; fill-opacity:1.000000;stroke:#000000; stroke-opacity:1.000000;
stroke-linecap:round; stroke-linejoin:round;"
 transform="translate(0 0) scale(1 1)">
</g>
<g style="fill:#840000; fill-opacity:0.0; 
stroke:#840000; stroke-width:0.000000; stroke-opacity:1; 
stroke-linecap:round; stroke-linejoin:round;">
</g>
<g style="fill:#FFFFC2; fill-opacity:0.0; 
stroke:#FFFFC2; stroke-width:0.000000; stroke-opacity:1; 
stroke-linecap:round; stroke-linejoin:round;">
</g>
<g style="fill:#FFFFC2; fill-opacity:0.6; 
stroke:#FFFFC2; stroke-width:0.039370; stroke-opacity:1; 
stroke-linecap:round; stroke-linejoin:round;">
<path style="fill:#FFFFC2; fill-opacity:0.6; 
stroke:#FFFFC2; stroke-width:0.039370; stroke-opacity:1; 
stroke-linecap:round; stroke-linejoin:round;fill-rule:evenodd;"
d="M 600000.000000,600000.000000
600000.000000,600000.000000
" /> 
</g>
<g style="fill:#840000; fill-opacity:0.6; 
stroke:#840000; stroke-width:0.039370; stroke-opacity:1; 
stroke-linecap:round; stroke-linejoin:round;">
</g>
<g style="fill:#840000; fill-opacity:0.0; 
stroke:#840000; stroke-width:100.000000; stroke-opacity:1; 
stroke-linecap:round; stroke-linejoin:round;">
<path style="fill:#840000; fill-opacity:0.0; 
stroke:#840000; stroke-width:100.000000; stroke-opacity:1; 
stroke-linecap:round; stroke-linejoin:round;fill:none"
d="M 600000.000000,600000.000000
600000.000000,600000.000000
" /> 
</g>
<g style="fill:#FFFFC2; fill-opacity:0.0; 
stroke:#FFFFC2; stroke-width:100.000000; stroke-opacity:1; 
stroke-linecap:round; stroke-linejoin:round;">
</g>
<g style="fill:#FFFFC2; fill-opacity:0.6; 
stroke:#FFFFC2; stroke-width:0.039370; stroke-opacity:1; 
stroke-linecap:round; stroke-linejoin:round;">
<path style="fill:#FFFFC2; fill-opacity:0.6; 
stroke:#FFFFC2; stroke-width:0.039370; stroke-opacity:1; 
stroke-linecap:round; stroke-linejoin:round;fill-rule:evenodd;"
d="M 600000.000000,600000.000000
600000.000000,600000.000000
" /> 
</g>
<g style="fill:#840000; fill-opacity:0.6; 
stroke:#840000; stroke-width:0.039370; stroke-opacity:1; 
stroke-linecap:round; stroke-linejoin:round;">
</g>
<g style="fill:#840000; fill-opacity:0.0; 
stroke:#840000; stroke-width:100.000000; stroke-opacity:1; 
stroke-linecap:round; stroke-linejoin:round;">
<path style="fill:#840000; fill-opacity:0.0; 
stroke:#840000; stroke-width:100.000000; stroke-opacity:1; 
stroke-linecap:round; stroke-linejoin:round;fill:none"
d="M 600000.000000,600000.000000
600000.000000,600000.000000
" /> 
</g>
<g style="fill:#FFFFC2; fill-opacity:0.0; 
stroke:#FFFFC2; stroke-width:100.000000; stroke-opacity:1; 
stroke-linecap:round; stroke-linejoin:round;">
</g>
<g style="fill:#FFFFC2; fill-opacity:0.6; 
stroke:#FFFFC2; stroke-width:0.039370; stroke-opacity:1; 
stroke-linecap:round; stroke-linejoin:round;">
<path style="fill:#FFFFC2; fill-opacity:0.6; 
stroke:#FFFFC2; stroke-width:0.039370; stroke-opacity:1; 
stroke-linecap:round; stroke-linejoin:round;fill-rule:evenodd;"
d="M 600000.000000,600000.000000
600000.000000,600000.000000
" /> 
</g>
<g style="fill:#840000; fill-opacity:0.6; 
stroke:#840000; stroke-width:0.039370; stroke-opacity:1; 
stroke-linecap:round; stroke-linejoin:round;">
</g>
<g style="fill:#840000; fill-opacity:0.0; 
stroke:#840000; stroke-width:100.000000; stroke-opacity:1; 
stroke-linecap:round; stroke-linejoin:round;">
<path style="fill:#840000; fill-opacity:0.0; 
stroke:#840000; stroke-width:100.000000; stroke-opacity:1; 
stroke-linecap:round; stroke-linejoin:round;fill:none"
d="M 600000.000000,600000.000000
600000.000000,600000.000000
" /> 
</g>
<g style="fill:#FFFFC2; fill-opacity:0.0; 
stroke:#FFFFC2; stroke-width:100.000000; stroke-opacity:1; 
stroke-linecap:round; stroke-linejoin:round;">
</g>
<g style="fill:#FFFFC2; fill-opacity:0.6; 
stroke:#FFFFC2; stroke-width:0.039370; stroke-opacity:1; 
stroke-linecap:round; stroke-linejoin:round;">
<path style="fill:#FFFFC2; fill-opacity:0.6; 
stroke:#FFFFC2; stroke-width:0.039370; stroke-opacity:1; 
stroke-linecap:round; stroke-linejoin:round;fill-rule:evenodd;"
d="M 600000.000000,600000.000000
600000.000000,600000.000000
" /> 
</g>
<g style="fill:#840000; fill-opacity:0.6; 
stroke:#840000; stroke-width:0.039370; stroke-opacity:1; 
stroke-linecap:round; stroke-linejoin:round;">
</g>
<g style="fill:#840000; fill-opacity:0.0; 
stroke:#840000; stroke-width:100.000000; stroke-opacity:1; 
stroke-linecap:round; stroke-linejoin:round;">
<path style="fill:#840000; fill-opacity:0.0; 
stroke:#840000; stroke-width:100.000000; stroke-opacity:1; 
stroke-linecap:round; stroke-linejoin:round;fill:none"
d="M 600000.000000,600000.000000
600000.000000,600000.000000
" /> 
</g>
<g style="fill:#FFFFC2; fill-opacity:0.0; 
stroke:#FFFFC2; stroke-width:100.000000; stroke-opacity:1; 
stroke-linecap:round; stroke-linejoin:round;">
</g>
<g style="fill:#FFFFC2; fill-opacity:0.6; 
stroke:#FFFFC2; stroke-width:0.039370; stroke-opacity:1; 
stroke-linecap:round; stroke-linejoin:round;">
<path style="fill:#FFFFC2; fill-opacity:0.6; 
stroke:#FFFFC2; stroke-width:0.039370; stroke-opacity:1; 
stroke-linecap:round; stroke-linejoin:round;fill-rule:evenodd;"
d="M 600000.000000,600000.000000
600000.000000,600000.000000
" /> 
</g>
<g style="fill:#840000; fill-opacity:0.6; 
stroke:#840000; stroke-width:0.039370; stroke-opacity:1; 
stroke-linecap:round; stroke-linejoin:round;">
</g>
<g style="fill:#840000; fill-opacity:0.0; 
stroke:#840000; stroke-width:100.000000; stroke-opacity:1; 
stroke-linecap:round; stroke-linejoin:round;">
<path style="fill:#840000; fill-opacity:0.0; 
stroke:#840000; stroke-width:100.000000; stroke-opacity:1; 
stroke-linecap:round; stroke-linejoin:round;fill:none"
d="M 600000.000000,600000.000000
600000.000000,600000.000000
" /> 
</g>
<g style="fill:#FFFFC2; fill-opacity:0.0; 
stroke:#FFFFC2; stroke-width:100.000000; stroke-opacity:1; 
stroke-linecap:round; stroke-linejoin:round;">
</g>
<g style="fill:#FFFFC2; fill-opacity:0.6; 
stroke:#FFFFC2; stroke-width:0.039370; stroke-opacity:1; 
stroke-linecap:round; stroke-linejoin:round;">
<path style="fill:#FFFFC2; fill-opacity:0.6; 
stroke:#FFFFC2; stroke-width:0.039370; stroke-opacity:1; 
stroke-linecap:round; stroke-linejoin:round;fill-rule:evenodd;"
d="M 600000.000000,600000.000000
600000.000000,600000.000000
" /> 
</g>
<g style="fill:#840000; fill-opacity:0.6; 
stroke:#840000; stroke-width:0.039370; stroke-opacity:1; 
stroke-linecap:round; stroke-linejoin:round;">
</g>
<g style="fill:#840000; fill-opacity:0.0; 
stroke:#840000; stroke-width:100.000000; stroke-opacity:1; 
stroke-linecap:round; stroke-linejoin:round;">
<path style="fill:#840000; fill-opacity:0.0; 
stroke:#840000; stroke-width:100.000000; stroke-opacity:1; 
stroke-linecap:round; stroke-linejoin:round;fill:none"
d="M 600000.000000,600000.000000
600000.000000,600000.000000
" /> 
</g>
<g style="fill:#FFFFC2; fill-opacity:0.0; 
stroke:#FFFFC2; stroke-width:100.000000; stroke-opacity:1; 
stroke-linecap:round; stroke-linejoin:round;">
</g>
<g style="fill:#FFFFC2; fill-opacity:0.6; 
stroke:#FFFFC2; stroke-width:0.039370; stroke-opacity:1; 
stroke-linecap:round; stroke-linejoin:round;">
<path style="fill:#FFFFC2; fill-opacity:0.6; 
stroke:#FFFFC2; stroke-width:0.039370; stroke-opacity:1; 
stroke-linecap:round; stroke-linejoin:round;fill-rule:evenodd;"
d="M 600000.000000,600000.000000
600000.000000,600000.000000
" /> 
</g>
<g style="fill:#840000; fill-opacity:0.6; 
stroke:#840000; stroke-width:0.039370; stroke-opacity:1; 
stroke-linecap:round; stroke-linejoin:round;">
</g>
<g style="fill:#840000; fill-opacity:0.0; 
stroke:#840000; stroke-width:100.000000; stroke-opacity:1; 
stroke-linecap:round; stroke-linejoin:round;">
<path style="fill:#840000; fill-opacity:0.0; 
stroke:#840000; stroke-width:100.000000; stroke-opacity:1; 
stroke-linecap:round; stroke-linejoin:round;fill:none"
d="M 600000.000000,600000.000000
600000.000000,600000.000000
" /> 
</g>
<g style="fill:#FFFFC2; fill-opacity:0.0; 
stroke:#FFFFC2; stroke-width:100.000000; stroke-opacity:1; 
stroke-linecap:round; stroke-linejoin:round;">
</g>
<g style="fill:#FFFFC2; fill-opacity:0.6; 
stroke:#FFFFC2; stroke-width:0.039370; stroke-opacity:1; 
stroke-linecap:round; stroke-linejoin:round;">
<path style="fill:#FFFFC2; fill-opacity:0.6; 
stroke:#FFFFC2; stroke-width:0.039370; stroke-opacity:1; 
stroke-linecap:round; stroke-linejoin:round;fill-rule:evenodd;"
d="M 600000.000000,600000.000000
600000.000000,600000.000000
" /> 
</g>
<g style="fill:#840000; fill-opacity:0.6; 
stroke:#840000; stroke-width:0.039370; stroke-opacity:1; 
stroke-linecap:round; stroke-linejoin:round;">
</g>
<g style="fill:#840000; fill-opacity:0.0; 
stroke:#840000; stroke-width:100.000000; stroke-opacity:1; 
stroke-linecap:round; stroke-linejoin:round;">
<path style="fill:#840000; fill-opacity:0.0; 
stroke:#840000; stroke-width:100.000000; stroke-opacity:1; 
stroke-linecap:round; stroke-linejoin:round;fill:none"
d="M 600000.000000,600000.000000
600000.000000,600000.000000
" /> 
</g>
<g style="fill:#FFFFC2; fill-opacity:0.0; 
stroke:#FFFFC2; stroke-width:100.000000; stroke-opacity:1; 
stroke-linecap:round; stroke-linejoin:round;">
</g>
<g style="fill:#FFFFC2; fill-opacity:0.6; 
stroke:#FFFFC2; stroke-width:0.039370; stroke-opacity:1; 
stroke-linecap:round; stroke-linejoin:round;">
<path style="fill:#FFFFC2; fill-opacity:0.6; 
stroke:#FFFFC2; stroke-width:0.039370; stroke-opacity:1; 
stroke-linecap:round; stroke-linejoin:round;fill-rule:evenodd;"
d="M 600000.000000,600000.000000
600000.000000,600000.000000
600000.000000,600000.000000
600000.000000,600000.000000
600000.000000,600000.000000
600000.000000,600000.000000
600000.000000,600000.000000
600000.000000,600000.000000
600000.000000,600000.000000
600000.000000,600000.000000
600000.000000,600000.000000
600000.000000,600000.000000
" /> 
<path style="fill:#FFFFC2; fill-opacity:0.6; 
stroke:#FFFFC2; stroke-width:0.039370; stroke-opacity:1; 
stroke-linecap:round; stroke-linejoin:round;fill-rule:evenodd;"
d="M 600000.000000,600000.000000
600000.000000,600000.000000
600000.000000,600000.000000
600000.000000,600000.000000
600000.000000,600000.000000
600000.000000,600000.000000
600000.000000,600000.000000
600000.000000,600000.000000
600000.000000,600000.000000
600000.000000,600000.000000
600000.000000,600000.000000
600000.000000,600000.000000
" /> 
<path style="fill:#FFFFC2; fill-opacity:0.6; 
stroke:#FFFFC2; stroke-width:0.039370; stroke-opacity:1; 
stroke-linecap:round; stroke-linejoin:round;fill-rule:evenodd;"
d="M 600000.000000,600000.000000
600000.000000,600000.000000
600000.000000,600000.000000
600000.000000,600000.000000
600000.000000,600000.000000
600000.000000,600000.000000
600000.000000,600000.000000
600000.000000,600000.000000
600000.000000,600000.000000
600000.000000,600000.000000
600000.000000,600000.000000
600000.000000,600000.000000
" /> 
<path style="fill:#FFFFC2; fill-opacity:0.6; 
stroke:#FFFFC2; stroke-width:0.039370; stroke-opacity:1; 
stroke-linecap:round; stroke-linejoin:round;fill-rule:evenodd;"
d="M 600000.000000,600000.000000
600000.000000,600000.000000
600000.000000,600000.000000
600000.000000,600000.000000
600000.000000,600000.000000
600000.000000,600000.000000
600000.000000,600000.000000
600000.000000,600000.000000
600000.000000,600000.000000
600000.000000,600000.000000
600000.000000,600000.000000
600000.000000,600000.000000
" /> 
<path d="M600235.123399 602032.112161 A2045.669291 2045.669291 0.0 0 0 601975.037713 600532.906074 L 600000.000000 600000.000000 Z" />
</g>
<g style="fill:#FFFFC2; fill-opacity:0.0; 
stroke:#FFFFC2; stroke-width:0.039370; stroke-opacity:1; 
stroke-linecap:round; stroke-linejoin:round;">
<path d="M600235.123399 602032.112161 A2045.669291 2045.669291 0.0 0 0 601975.037713 600532.906074" />
</g>
<g style="fill:#840000; fill-opacity:0.0; 
stroke:#840000; stroke-width:0.039370; stroke-opacity:1; 
stroke-linecap:round; stroke-linejoin:round;">
</g>
<g style="fill:#840000; fill-opacity:0.0; 
stroke:#840000; stroke-width:100.000000; stroke-opacity:1; 
stroke-linecap:round; stroke-linejoin:round;">
<path d="M600235.123399 602032.112161 A2045.669291 2045.669291 0.0 0 0 601975.037713 600532.906074" />
</g>
<g style="fill:#FFFFC2; fill-opacity:0.0; 
stroke:#FFFFC2; stroke-width:100.000000; stroke-opacity:1; 
stroke-linecap:round; stroke-linejoin:round;">
</g>
<g style="fill:#FFFFC2; fill-opacity:0.6; 
stroke:#FFFFC2; stroke-width:0.039370; stroke-opacity:1; 
stroke-linecap:round; stroke-linejoin:round;">
<path d="M600235.123399 602032.112161 A2045.669291 2045.669291 0.0 0 0 601975.037713 600532.906074 L 600000.000000 600000.000000 Z" />
</g>
<g style="fill:#FFFFC2; fill-opacity:0.0; 
stroke:#FFFFC2; stroke-width:0.039370; stroke-opacity:1; 
stroke-linecap:round; stroke-linejoin:round;">
<path d="M600235.123399 602032.112161 A2045.669291 2045.669291 0.0 0 0 601975.037713 600532.906074" />
</g>
<g style="fill:#840000; fill-opacity:0.0; 
stroke:#840000; stroke-width:0.039370; stroke-opacity:1; 
stroke-linecap:round; stroke-linejoin:round;">
</g>
<g style="fill:#840000; fill-opacity:0.0; 
stroke:#840000; stroke-width:100.000000; stroke-opacity:1; 
stroke-linecap:round; stroke-linejoin:round;">
<path d="M600235.123399 602032.112161 A2045.669291 2045.669291 0.0 0 0 601975.037713 600532.906074" />
</g>
<g style="fill:#FFFFC2; fill-opacity:0.0; 
stroke:#FFFFC2; stroke-width:100.000000; stroke-opacity:1; 
stroke-linecap:round; stroke-linejoin:round;">
</g>
<g style="fill:#FFFFC2; fill-opacity:0.6; 
stroke:#FFFFC2; stroke-width:0.039370; stroke-opacity:1; 
stroke-linecap:round; stroke-linejoin:round;">
<path d="M601958.526792 599486.190115 A2024.803150 2024.803150 0.0 0 0 600218.677436 597987.039997 L 600000.000000 600000.000000 Z" />
</g>
<g style="fill:#FFFFC2; fill-opacity:0.0; 
stroke:#FFFFC2; stroke-width:0.039370; stroke-opacity:1; 
stroke-linecap:round; stroke-linejoin:round;">
<path d="M601958.526792 599486.190115 A2024.803150 2024.803150 0.0 0 0 600218.677436 597987.039997" />
</g>
<g style="fill:#840000; fill-opacity:0.0; 
stroke:#840000; stroke-width:0.039370; stroke-opacity:1; 
stroke-linecap:round; stroke-linejoin:round;">
</g>
<g style="fill:#840000; fill-opacity:0.0; 
stroke:#840000; stroke-width:100.000000; stroke-opacity:1; 
stroke-linecap:round; stroke-linejoin:round;">
<path d="M601958.526792 599486.190115 A2024.803150 2024.803150 0.0 0 0 600218.677436 597987.039997" />
</g>
<g style="fill:#FFFFC2; fill-opacity:0.0; 
stroke:#FFFFC2; stroke-width:100.000000; stroke-opacity:1; 
stroke-linecap:round; stroke-linejoin:round;">
</g>
<g style="fill:#FFFFC2; fill-opacity:0.6; 
stroke:#FFFFC2; stroke-width:0.039370; stroke-opacity:1; 
stroke-linecap:round; stroke-linejoin:round;">
<path d="M601958.526792 599486.190115 A2024.803150 2024.803150 0.0 0 0 600218.677436 597987.039997 L 600000.000000 600000.000000 Z" />
</g>
<g style="fill:#FFFFC2; fill-opacity:0.0; 
stroke:#FFFFC2; stroke-width:0.039370; stroke-opacity:1; 
stroke-linecap:round; stroke-linejoin:round;">
<path d="M601958.526792 599486.190115 A2024.803150 2024.803150 0.0 0 0 600218.677436 597987.039997" />
</g>
<g style="fill:#840000; fill-opacity:0.0; 
stroke:#840000; stroke-width:0.039370; stroke-opacity:1; 
stroke-linecap:round; stroke-linejoin:round;">
</g>
<g style="fill:#840000; fill-opacity:0.0; 
stroke:#840000; stroke-width:100.000000; stroke-opacity:1; 
stroke-linecap:round; stroke-linejoin:round;">
<path d="M601958.526792 599486.190115 A2024.803150 2024.803150 0.0 0 0 600218.677436 597987.039997" />
</g>
<g style="fill:#FFFFC2; fill-opacity:0.0; 
stroke:#FFFFC2; stroke-width:100.000000; stroke-opacity:1; 
stroke-linecap:round; stroke-linejoin:round;">
</g>
<g style="fill:#FFFFC2; fill-opacity:0.6; 
stroke:#FFFFC2; stroke-width:0.039370; stroke-opacity:1; 
stroke-linecap:round; stroke-linejoin:round;">
<path d="M598041.473208 600513.809885 A2024.803150 2024.803150 0.0 0 0 599781.322564 602012.960003 L 600000.000000 600000.000000 Z" />
</g>
<g style="fill:#FFFFC2; fill-opacity:0.0; 
stroke:#FFFFC2; stroke-width:0.039370; stroke-opacity:1; 
stroke-linecap:round; stroke-linejoin:round;">
<path d="M598041.473208 600513.809885 A2024.803150 2024.803150 0.0 0 0 599781.322564 602012.960003" />
</g>
<g style="fill:#840000; fill-opacity:0.0; 
stroke:#840000; stroke-width:0.039370; stroke-opacity:1; 
stroke-linecap:round; stroke-linejoin:round;">
</g>
<g style="fill:#840000; fill-opacity:0.0; 
stroke:#840000; stroke-width:100.000000; stroke-opacity:1; 
stroke-linecap:round; stroke-linejoin:round;">
<path d="M598041.473208 600513.809885 A2024.803150 2024.803150 0.0 0 0 599781.322564 602012.960003" />
</g>
<g style="fill:#FFFFC2; fill-opacity:0.0; 
stroke:#FFFFC2; stroke-width:100.000000; stroke-opacity:1; 
stroke-linecap:round; stroke-linejoin:round;">
</g>
<g style="fill:#FFFFC2; fill-opacity:0.6; 
stroke:#FFFFC2; stroke-width:0.039370; stroke-opacity:1; 
stroke-linecap:round; stroke-linejoin:round;">
<path d="M598041.473208 600513.809885 A2024.803150 2024.803150 0.0 0 0 599781.322564 602012.960003 L 600000.000000 600000.000000 Z" />
</g>
<g style="fill:#FFFFC2; fill-opacity:0.0; 
stroke:#FFFFC2; stroke-width:0.039370; stroke-opacity:1; 
stroke-linecap:round; stroke-linejoin:round;">
<path d="M598041.473208 600513.809885 A2024.803150 2024.803150 0.0 0 0 599781.322564 602012.960003" />
</g>
<g style="fill:#840000; fill-opacity:0.0; 
stroke:#840000; stroke-width:0.039370; stroke-opacity:1; 
stroke-linecap:round; stroke-linejoin:round;">
</g>
<g style="fill:#840000; fill-opacity:0.0; 
stroke:#840000; stroke-width:100.000000; stroke-opacity:1; 
stroke-linecap:round; stroke-linejoin:round;">
<path d="M598041.473208 600513.809885 A2024.803150 2024.803150 0.0 0 0 599781.322564 602012.960003" />
</g>
<g style="fill:#FFFFC2; fill-opacity:0.0; 
stroke:#FFFFC2; stroke-width:100.000000; stroke-opacity:1; 
stroke-linecap:round; stroke-linejoin:round;">
</g>
<g style="fill:#FFFFC2; fill-opacity:0.6; 
stroke:#FFFFC2; stroke-width:0.039370; stroke-opacity:1; 
stroke-linecap:round; stroke-linejoin:round;">
<path d="M599764.876601 597967.887839 A2045.669291 2045.669291 0.0 0 0 598024.962287 599467.093926 L 600000.000000 600000.000000 Z" />
</g>
<g style="fill:#FFFFC2; fill-opacity:0.0; 
stroke:#FFFFC2; stroke-width:0.039370; stroke-opacity:1; 
stroke-linecap:round; stroke-linejoin:round;">
<path d="M599764.876601 597967.887839 A2045.669291 2045.669291 0.0 0 0 598024.962287 599467.093926" />
</g>
<g style="fill:#840000; fill-opacity:0.0; 
stroke:#840000; stroke-width:0.039370; stroke-opacity:1; 
stroke-linecap:round; stroke-linejoin:round;">
</g>
<g style="fill:#840000; fill-opacity:0.0; 
stroke:#840000; stroke-width:100.000000; stroke-opacity:1; 
stroke-linecap:round; stroke-linejoin:round;">
<path d="M599764.876601 597967.887839 A2045.669291 2045.669291 0.0 0 0 598024.962287 599467.093926" />
</g>
<g style="fill:#FFFFC2; fill-opacity:0.0; 
stroke:#FFFFC2; stroke-width:100.000000; stroke-opacity:1; 
stroke-linecap:round; stroke-linejoin:round;">
</g>
<g style="fill:#FFFFC2; fill-opacity:0.6; 
stroke:#FFFFC2; stroke-width:0.039370; stroke-opacity:1; 
stroke-linecap:round; stroke-linejoin:round;">
<path d="M599764.876601 597967.887839 A2045.669291 2045.669291 0.0 0 0 598024.962287 599467.093926 L 600000.000000 600000.000000 Z" />
</g>
<g style="fill:#FFFFC2; fill-opacity:0.0; 
stroke:#FFFFC2; stroke-width:0.039370; stroke-opacity:1; 
stroke-linecap:round; stroke-linejoin:round;">
<path d="M599764.876601 597967.887839 A2045.669291 2045.669291 0.0 0 0 598024.962287 599467.093926" />
</g>
<g style="fill:#840000; fill-opacity:0.0; 
stroke:#840000; stroke-width:0.039370; stroke-opacity:1; 
stroke-linecap:round; stroke-linejoin:round;">
</g>
<g style="fill:#840000; fill-opacity:0.0; 
stroke:#840000; stroke-width:100.000000; stroke-opacity:1; 
stroke-linecap:round; stroke-linejoin:round;">
<path d="M599764.876601 597967.887839 A2045.669291 2045.669291 0.0 0 0 598024.962287 599467.093926" />
</g>
<g style="fill:#840000; fill-opacity:0.0; 
stroke:#840000; stroke-width:60.000000; stroke-opacity:1; 
stroke-linecap:round; stroke-linejoin:round;">
<path style="fill:#840000; fill-opacity:0.0; 
stroke:#840000; stroke-width:60.000000; stroke-opacity:1; 
stroke-linecap:round; stroke-linejoin:round;fill:none"
d="M 600000.000000,600000.000000
600000.000000,600000.000000
" /> 
<path style="fill:#840000; fill-opacity:0.0; 
stroke:#840000; stroke-width:60.000000; stroke-opacity:1; 
stroke-linecap:round; stroke-linejoin:round;fill:none"
d="M 600000.000000,600000.000000
600000.000000,600000.000000
" /> 
<path style="fill:#840000; fill-opacity:0.0; 
stroke:#840000; stroke-width:60.000000; stroke-opacity:1; 
stroke-linecap:round; stroke-linejoin:round;fill:none"
d="M 600000.000000,600000.000000
600000.000000,600000.000000
" /> 
<path style="fill:#840000; fill-opacity:0.0; 
stroke:#840000; stroke-width:60.000000; stroke-opacity:1; 
stroke-linecap:round; stroke-linejoin:round;fill:none"
d="M 600000.000000,600000.000000
600000.000000,600000.000000
" /> 
</g>
<g style="fill:#840000; fill-opacity:0.0; 
stroke:#840000; stroke-width:100.000000; stroke-opacity:1; 
stroke-linecap:round; stroke-linejoin:round;">
<path style="fill:#840000; fill-opacity:0.0; 
stroke:#840000; stroke-width:100.000000; stroke-opacity:1; 
stroke-linecap:round; stroke-linejoin:round;fill:none"
d="M 600000.000000,600000.000000
600000.000000,600000.000000
" /> 
<path style="fill:#840000; fill-opacity:0.0; 
stroke:#840000; stroke-width:100.000000; stroke-opacity:1; 
stroke-linecap:round; stroke-linejoin:round;fill:none"
d="M 600000.000000,600000.000000
600000.000000,600000.000000
" /> 
<path style="fill:#840000; fill-opacity:0.0; 
stroke:#840000; stroke-width:100.000000; stroke-opacity:1; 
stroke-linecap:round; stroke-linejoin:round;fill:none"
d="M 600000.000000,600000.000000
600000.000000,600000.000000
" /> 
<path style="fill:#840000; fill-opacity:0.0; 
stroke:#840000; stroke-width:100.000000; stroke-opacity:1; 
stroke-linecap:round; stroke-linejoin:round;fill:none"
d="M 600000.000000,600000.000000
600000.000000,600000.000000
" /> 
</g>
<g style="fill:#840000; fill-opacity:0.0; 
stroke:#840000; stroke-width:60.000000; stroke-opacity:1; 
stroke-linecap:round; stroke-linejoin:round;">
<path style="fill:#840000; fill-opacity:0.0; 
stroke:#840000; stroke-width:60.000000; stroke-opacity:1; 
stroke-linecap:round; stroke-linejoin:round;fill:none"
d="M 600000.000000,600000.000000
600000.000000,600000.000000
" /> 
</g>
<g style="fill:#840000; fill-opacity:0.0; 
stroke:#840000; stroke-width:100.000000; stroke-opacity:1; 
stroke-linecap:round; stroke-linejoin:round;">
<path style="fill:#840000; fill-opacity:0.0; 
stroke:#840000; stroke-width:100.000000; stroke-opacity:1; 
stroke-linecap:round; stroke-linejoin:round;fill:none"
d="M 600000.000000,600000.000000
600000.000000,600000.000000
" /> 
<path style="fill:#840000; fill-opacity:0.0; 
stroke:#840000; stroke-width:100.000000; stroke-opacity:1; 
stroke-linecap:round; stroke-linejoin:round;fill:none"
d="M 600000.000000,600000.000000
600000.000000,600000.000000
" /> 
<path style="fill:#840000; fill-opacity:0.0; 
stroke:#840000; stroke-width:100.000000; stroke-opacity:1; 
stroke-linecap:round; stroke-linejoin:round;fill:none"
d="M 600000.000000,600000.000000
600000.000000,600000.000000
" /> 
<path style="fill:#840000; fill-opacity:0.0; 
stroke:#840000; stroke-width:100.000000; stroke-opacity:1; 
stroke-linecap:round; stroke-linejoin:round;fill:none"
d="M 600000.000000,600000.000000
600000.000000,600000.000000
" /> 
</g>
<g style="fill:#840000; fill-opacity:0.0; 
stroke:#840000; stroke-width:60.000000; stroke-opacity:1; 
stroke-linecap:round; stroke-linejoin:round;">
<path style="fill:#840000; fill-opacity:0.0; 
stroke:#840000; stroke-width:60.000000; stroke-opacity:1; 
stroke-linecap:round; stroke-linejoin:round;fill:none"
d="M 600000.000000,600000.000000
600000.000000,600000.000000
" /> 
<path style="fill:#840000; fill-opacity:0.0; 
stroke:#840000; stroke-width:60.000000; stroke-opacity:1; 
stroke-linecap:round; stroke-linejoin:round;fill:none"
d="M 600000.000000,600000.000000
600000.000000,600000.000000
" /> 
<path style="fill:#840000; fill-opacity:0.0; 
stroke:#840000; stroke-width:60.000000; stroke-opacity:1; 
stroke-linecap:round; stroke-linejoin:round;fill:none"
d="M 600000.000000,600000.000000
600000.000000,600000.000000
" /> 
<path style="fill:#840000; fill-opacity:0.0; 
stroke:#840000; stroke-width:60.000000; stroke-opacity:1; 
stroke-linecap:round; stroke-linejoin:round;fill:none"
d="M 600000.000000,600000.000000
600000.000000,600000.000000
600000.000000,600000.000000
600000.000000,600000.000000
" /> 
<path style="fill:#840000; fill-opacity:0.0; 
stroke:#840000; stroke-width:60.000000; stroke-opacity:1; 
stroke-linecap:round; stroke-linejoin:round;fill:none"
d="M 600000.000000,600000.000000
600000.000000,600000.000000
600000.000000,600000.000000
600000.000000,600000.000000
" /> 
<path style="fill:#840000; fill-opacity:0.0; 
stroke:#840000; stroke-width:60.000000; stroke-opacity:1; 
stroke-linecap:round; stroke-linejoin:round;fill:none"
d="M 600000.000000,600000.000000
600000.000000,600000.000000
600000.000000,600000.000000
600000.000000,600000.000000
" /> 
<path style="fill:#840000; fill-opacity:0.0; 
stroke:#840000; stroke-width:60.000000; stroke-opacity:1; 
stroke-linecap:round; stroke-linejoin:round;fill:none"
d="M 600000.000000,600000.000000
600000.000000,600000.000000
600000.000000,600000.000000
600000.000000,600000.000000
" /> 
</g>
<g style="fill:#840000; fill-opacity:0.0; 
stroke:#840000; stroke-width:0.039370; stroke-opacity:1; 
stroke-linecap:round; stroke-linejoin:round;">
<path style="fill:#840000; fill-opacity:0.0; 
stroke:#840000; stroke-width:0.039370; stroke-opacity:1; 
stroke-linecap:round; stroke-linejoin:round;fill:none"
d="M 600000.000000,600000.000000
600000.000000,600000.000000
600000.000000,600000.000000
600000.000000,600000.000000
600000.000000,600000.000000
600000.000000,600000.000000
600000.000000,600000.000000
600000.000000,600000.000000
600000.000000,600000.000000
600000.000000,600000.000000
600000.000000,600000.000000
600000.000000,600000.000000
" /> 
<path style="fill:#840000; fill-opacity:0.0; 
stroke:#840000; stroke-width:0.039370; stroke-opacity:1; 
stroke-linecap:round; stroke-linejoin:round;fill:none"
d="M 600000.000000,600000.000000
600000.000000,600000.000000
600000.000000,600000.000000
600000.000000,600000.000000
600000.000000,600000.000000
600000.000000,600000.000000
600000.000000,600000.000000
600000.000000,600000.000000
600000.000000,600000.000000
600000.000000,600000.000000
600000.000000,600000.000000
600000.000000,600000.000000
" /> 
<path style="fill:#840000; fill-opacity:0.0; 
stroke:#840000; stroke-width:0.039370; stroke-opacity:1; 
stroke-linecap:round; stroke-linejoin:round;fill:none"
d="M 600000.000000,600000.000000
600000.000000,600000.000000
600000.000000,600000.000000
600000.000000,600000.000000
600000.000000,600000.000000
600000.000000,600000.000000
600000.000000,600000.000000
600000.000000,600000.000000
600000.000000,600000.000000
600000.000000,600000.000000
600000.000000,600000.000000
600000.000000,600000.000000
" /> 
<path style="fill:#840000; fill-opacity:0.0; 
stroke:#840000; stroke-width:0.039370; stroke-opacity:1; 
stroke-linecap:round; stroke-linejoin:round;fill:none"
d="M 600000.000000,600000.000000
600000.000000,600000.000000
600000.000000,600000.000000
600000.000000,600000.000000
600000.000000,600000.000000
600000.000000,600000.000000
600000.000000,600000.000000
600000.000000,600000.000000
600000.000000,600000.000000
600000.000000,600000.000000
600000.000000,600000.000000
600000.000000,600000.000000
" /> 
</g>
<g style="fill:#840000; fill-opacity:0.0; 
stroke:#840000; stroke-width:60.000000; stroke-opacity:1; 
stroke-linecap:round; stroke-linejoin:round;">
<line x1="600000.000000" y1="600000.000000" x2="600000.000000" y2="600000.000000" />
</g>
<g style="fill:#840000; fill-opacity:0.0; 
stroke:#840000; stroke-width:100.000000; stroke-opacity:1; 
stroke-linecap:round; stroke-linejoin:round;">
<path d="M602100.930866 601498.579423 A2580.629921 2580.629921 0.0 0 0 602100.930866 598501.420577" />
<path d="M602100.930866 601498.579423 A2580.629921 2580.629921 0.0 0 0 602100.930866 598501.420577" />
<path d="M600235.123399 602032.112161 A2045.669291 2045.669291 0.0 0 0 601975.037713 600532.906074" />
<path d="M600235.123399 602032.112161 A2045.669291 2045.669291 0.0 0 0 601975.037713 600532.906074" />
<path d="M601958.526792 599486.190115 A2024.803150 2024.803150 0.0 0 0 600218.677436 597987.039997" />
<path d="M601958.526792 599486.190115 A2024.803150 2024.803150 0.0 0 0 600218.677436 597987.039997" />
<path d="M598041.473208 600513.809885 A2024.803150 2024.803150 0.0 0 0 599781.322564 602012.960003" />
<path d="M598041.473208 600513.809885 A2024.803150 2024.803150 0.0 0 0 599781.322564 602012.960003" />
<path d="M599764.876601 597967.887839 A2045.669291 2045.669291 0.0 0 0 598024.962287 599467.093926" />
<path d="M599764.876601 597967.887839 A2045.669291 2045.669291 0.0 0 0 598024.962287 599467.093926" />
<path d="M597899.069134 598501.420577 A2580.629921 2580.629921 0.0 0 0 597899.069134 601498.579423" />
<path d="M597899.069134 598501.420577 A2580.629921 2580.629921 0.0 0 0 597899.069134 601498.579423" />
</g>
<g style="fill:#840000; fill-opacity:0.0; 
stroke:#840000; stroke-width:60.000000; stroke-opacity:1; 
stroke-linecap:round; stroke-linejoin:round;">
<path d="M600000 600000
L600000 600000
" />
</g>
<g style="fill:#A90000; fill-opacity:0.0; 
stroke:#A90000; stroke-width:60.000000; stroke-opacity:1; 
stroke-linecap:round; stroke-linejoin:round;">
<text x="600000.000000" y="600000.000000"
textLength="536.181102" font-size="666.653543" lengthAdjust="spacingAndGlyphs"
text-anchor="middle" opacity="0">1</text>
<g class="stroked-text"><desc>1</desc>
<path d="M600000 600000
L600000 600000
" />
<path d="M600000 600000
L600000 600000
L600000 600000
L600000 600000
L600000 600000
" />
</g></g>
<g style="fill:#840000; fill-opacity:0.0; 
stroke:#840000; stroke-width:60.000000; stroke-opacity:1; 
stroke-linecap:round; stroke-linejoin:round;">
<path d="M600000 600000
L600000 600000
" />
</g>
<g style="fill:#A90000; fill-opacity:0.0; 
stroke:#A90000; stroke-width:60.000000; stroke-opacity:1; 
stroke-linecap:round; stroke-linejoin:round;">
<text x="600000.000000" y="600000.000000"
textLength="1012.362205" font-size="666.653543" lengthAdjust="spacingAndGlyphs"
text-anchor="middle" opacity="0">10</text>
<g class="stroked-text"><desc>10</desc>
<path d="M600000 600000
L600000 600000
" />
<path d="M600000 600000
L600000 600000
L600000 600000
L600000 600000
L600000 600000
" />
<path d="M600000 600000
L600000 600000
L600000 600000
L600000 600000
L600000 600000
L600000 600000
L600000 600000
L600000 600000
L600000 600000
L600000 600000
L600000 600000
L600000 600000
L600000 600000
L600000 600000
L600000 600000
L600000 600000
L600000 600000
L600000 600000
L600000 600000
L600000 600000
L600000 600000
" />
</g></g>
<g style="fill:#840000; fill-opacity:0.0; 
stroke:#840000; stroke-width:60.000000; stroke-opacity:1; 
stroke-linecap:round; stroke-linejoin:round;">
<path d="M600000 600000
L600000 600000
" />
</g>
<g style="fill:#A90000; fill-opacity:0.0; 
stroke:#A90000; stroke-width:60.000000; stroke-opacity:1; 
stroke-linecap:round; stroke-linejoin:round;">
<text x="600000.000000" y="600000.000000"
textLength="1012.362205" font-size="666.653543" lengthAdjust="spacingAndGlyphs"
text-anchor="middle" opacity="0">11</text>
<g class="stroked-text"><desc>11</desc>
<path d="M600000 600000
L600000 600000
" />
<path d="M600000 600000
L600000 600000
L600000 600000
L600000 600000
L600000 600000
" />
<path d="M600000 600000
L600000 600000
" />
<path d="M600000 600000
L600000 600000
L600000 600000
L600000 600000
L600000 600000
" />
</g></g>
<g style="fill:#840000; fill-opacity:0.0; 
stroke:#840000; stroke-width:60.000000; stroke-opacity:1; 
stroke-linecap:round; stroke-linejoin:round;">
<path d="M600000 600000
L600000 600000
" />
</g>
<g style="fill:#A90000; fill-opacity:0.0; 
stroke:#A90000; stroke-width:60.000000; stroke-opacity:1; 
stroke-linecap:round; stroke-linejoin:round;">
<text x="600000.000000" y="600000.000000"
textLength="1012.362205" font-size="666.653543" lengthAdjust="spacingAndGlyphs"
text-anchor="middle" opacity="0">12</text>
<g class="stroked-text"><desc>12</desc>
<path d="M600000 600000
L600000 600000
" />
<path d="M600000 600000
L600000 600000
L600000 600000
L600000 600000
L600000 600000
" />
<path d="M600000 600000
L600000 600000
L600000 600000
L600000 600000
L600000 600000
L600000 600000
L600000 600000
L600000 600000
L600000 600000
L600000 600000
L600000 600000
" />
</g></g>
<g style="fill:#840000; fill-opacity:0.0; 
stroke:#840000; stroke-width:60.000000; stroke-opacity:1; 
stroke-linecap:round; stroke-linejoin:round;">
<path d="M600000 600000
L600000 600000
" />
</g>
<g style="fill:#A90000; fill-opacity:0.0; 
stroke:#A90000; stroke-width:60.000000; stroke-opacity:1; 
stroke-linecap:round; stroke-linejoin:round;">
<text x="600000.000000" y="600000.000000"
textLength="1012.362205" font-size="666.653543" lengthAdjust="spacingAndGlyphs"
text-anchor="middle" opacity="0">13</text>
<g class="stroked-text"><desc>13</desc>
<path d="M600000 600000
L600000 600000
" />
<path d="M600000 600000
L600000 600000
L600000 600000
L600000 600000
L600000 600000
" />
<path d="M600000 600000
L600000 600000
L600000 600000
L600000 600000
L600000 600000
L600000 600000
L600000 600000
L600000 600000
L600000 600000
L600000 600000
L600000 600000
L600000 600000
L600000 600000
L600000 600000
" />
</g></g>
<g style="fill:#840000; fill-opacity:0.0; 
stroke:#840000; stroke-width:60.000000; stroke-opacity:1; 
stroke-linecap:round; stroke-linejoin:round;">
<path d="M600000 600000
L600000 600000
" />
</g>
<g style="fill:#006464; fill-opacity:0.0; 
stroke:#006464; stroke-width:60.000000; stroke-opacity:1; 
stroke-linecap:round; stroke-linejoin:round;">
<text x="600000.000000" y="600000.000000"
textLength="1583.818898" font-size="666.653543" lengthAdjust="spacingAndGlyphs"
text-anchor="end" opacity="0">+5V</text>
<g class="stroked-text"><desc>+5V</desc>
<path d="M600000 600000
L600000 600000
" />
<path d="M600000 600000
L600000 600000
" />
<path d="M600000 600000
L600000 600000
L600000 600000
L600000 600000
L600000 600000
L600000 600000
L600000 600000
L600000 600000
L600000 600000
L600000 600000
L600000 600000
L600000 600000
L600000 600000
L600000 600000
L600000 600000
L600000 600000
" />
<path d="M600000 600000
L600000 600000
L600000 600000
" />
</g></g>
<g style="fill:#A90000; fill-opacity:0.0; 
stroke:#A90000; stroke-width:60.000000; stroke-opacity:1; 
stroke-linecap:round; stroke-linejoin:round;">
<text x="600000.000000" y="600000.000000"
textLength="1012.362205" font-size="666.653543" lengthAdjust="spacingAndGlyphs"
text-anchor="middle" opacity="0">14</text>
<g class="stroked-text"><desc>14</desc>
<path d="M600000 600000
L600000 600000
" />
<path d="M600000 600000
L600000 600000
L600000 600000
L600000 600000
L600000 600000
" />
<path d="M600000 600000
L600000 600000
" />
<path d="M600000 600000
L600000 600000
L600000 600000
" />
</g></g>
<g style="fill:#840000; fill-opacity:0.0; 
stroke:#840000; stroke-width:60.000000; stroke-opacity:1; 
stroke-linecap:round; stroke-linejoin:round;">
<path d="M600000 600000
L600000 600000
" />
</g>
<g style="fill:#A90000; fill-opacity:0.0; 
stroke:#A90000; stroke-width:60.000000; stroke-opacity:1; 
stroke-linecap:round; stroke-linejoin:round;">
<text x="600000.000000" y="600000.000000"
textLength="536.181102" font-size="666.653543" lengthAdjust="spacingAndGlyphs"
text-anchor="middle" opacity="0">2</text>
<g class="stroked-text"><desc>2</desc>
<path d="M600000 600000
L600000 600000
L600000 600000
L600000 600000
L600000 600000
L600000 600000
L600000 600000
L600000 600000
L600000 600000
L600000 600000
L600000 600000
" />
</g></g>
<g style="fill:#840000; fill-opacity:0.0; 
stroke:#840000; stroke-width:60.000000; stroke-opacity:1; 
stroke-linecap:round; stroke-linejoin:round;">
<path d="M600000 600000
L600000 600000
" />
</g>
<g style="fill:#A90000; fill-opacity:0.0; 
stroke:#A90000; stroke-width:60.000000; stroke-opacity:1; 
stroke-linecap:round; stroke-linejoin:round;">
<text x="600000.000000" y="600000.000000"
textLength="536.181102" font-size="666.653543" lengthAdjust="spacingAndGlyphs"
text-anchor="middle" opacity="0">3</text>
<g class="stroked-text"><desc>3</desc>
<path d="M600000 600000
L600000 600000
L600000 600000
L600000 600000
L600000 600000
L600000 600000
L600000 600000
L600000 600000
L600000 600000
L600000 600000
L600000 600000
L600000 600000
L600000 600000
L600000 600000
" />
</g></g>
<g style="fill:#840000; fill-opacity:0.0; 
stroke:#840000; stroke-width:60.000000; stroke-opacity:1; 
stroke-linecap:round; stroke-linejoin:round;">
<path d="M600000 600000
L600000 600000
" />
</g>
<g style="fill:#A90000; fill-opacity:0.0; 
stroke:#A90000; stroke-width:60.000000; stroke-opacity:1; 
stroke-linecap:round; stroke-linejoin:round;">
<text x="600000.000000" y="600000.000000"
textLength="536.181102" font-size="666.653543" lengthAdjust="spacingAndGlyphs"
text-anchor="middle" opacity="0">4</text>
<g class="stroked-text"><desc>4</desc>
<path d="M600000 600000
L600000 600000
" />
<path d="M600000 600000
L600000 600000
L600000 600000
" />
</g></g>
<g style="fill:#840000; fill-opacity:0.0; 
stroke:#840000; stroke-width:60.000000; stroke-opacity:1; 
stroke-linecap:round; stroke-linejoin:round;">
<path d="M600000 600000
L600000 600000
" />
</g>
<g style="fill:#A90000; fill-opacity:0.0; 
stroke:#A90000; stroke-width:60.000000; stroke-opacity:1; 
stroke-linecap:round; stroke-linejoin:round;">
<text x="600000.000000" y="600000.000000"
textLength="536.181102" font-size="666.653543" lengthAdjust="spacingAndGlyphs"
text-anchor="middle" opacity="0">6</text>
<g class="stroked-text"><desc>6</desc>
<path d="M600000 600000
L600000 600000
L600000 600000
L600000 600000
L600000 600000
L600000 600000
L600000 600000
L600000 600000
L600000 600000
L600000 600000
L600000 600000
L600000 600000
L600000 600000
L600000 600000
L600000 600000
L600000 600000
L600000 600000
L600000 600000
L600000 600000
L600000 600000
L600000 600000
L600000 600000
" />
</g></g>
<g style="fill:#840000; fill-opacity:0.0; 
stroke:#840000; stroke-width:60.000000; stroke-opacity:1; 
stroke-linecap:round; stroke-linejoin:round;">
<path d="M600000 600000
L600000 600000
" />
</g>
<g style="fill:#A90000; fill-opacity:0.0; 
stroke:#A90000; stroke-width:60.000000; stroke-opacity:1; 
stroke-linecap:round; stroke-linejoin:round;">
<text x="600000.000000" y="600000.000000"
textLength="536.181102" font-size="666.653543" lengthAdjust="spacingAndGlyphs"
text-anchor="middle" opacity="0">6</text>
<g class="stroked-text"><desc>6</desc>
<path d="M600000 600000
L600000 600000
L600000 600000
L600000 600000
L600000 600000
L600000 600000
L600000 600000
L600000 600000
L600000 600000
L600000 600000
L600000 600000
L600000 600000
L600000 600000
L600000 600000
L600000 600000
L600000 600000
L600000 600000
L600000 600000
L600000 600000
L600000 600000
L600000 600000
L600000 600000
" />
</g></g>
<g style="fill:#840000; fill-opacity:0.0; 
stroke:#840000; stroke-width:60.000000; stroke-opacity:1; 
stroke-linecap:round; stroke-linejoin:round;">
<path d="M600000 600000
L600000 600000
" />
</g>
<g style="fill:#006464; fill-opacity:0.0; 
stroke:#006464; stroke-width:60.000000; stroke-opacity:1; 
stroke-linecap:round; stroke-linejoin:round;">
<text x="600000.000000" y="600000.000000"
textLength="1583.818898" font-size="666.653543" lengthAdjust="spacingAndGlyphs"
text-anchor="start" opacity="0">GND</text>
<g class="stroked-text"><desc>GND</desc>
<path d="M600000 600000
L600000 600000
L600000 600000
L600000 600000
L600000 600000
L600000 600000
L600000 600000
L600000 600000
L600000 600000
L600000 600000
L600000 600000
L600000 600000
L600000 600000
L600000 600000
L600000 600000
L600000 600000
L600000 600000
" />
<path d="M600000 600000
L600000 600000
L600000 600000
L600000 600000
" />
<path d="M600000 600000
L600000 600000
L600000 600000
L600000 600000
L600000 600000
L600000 600000
L600000 600000
L600000 600000
L600000 600000
L600000 600000
L600000 600000
L600000 600000
L600000 600000
" />
</g></g>
<g style="fill:#A90000; fill-opacity:0.0; 
stroke:#A90000; stroke-width:60.000000; stroke-opacity:1; 
stroke-linecap:round; stroke-linejoin:round;">
<text x="600000.000000" y="600000.000000"
textLength="536.181102" font-size="666.653543" lengthAdjust="spacingAndGlyphs"
text-anchor="middle" opacity="0">7</text>
<g class="stroked-text"><desc>7</desc>
<path d="M600000 600000
L600000 600000
L600000 600000
" />
</g></g>
<g style="fill:#840000; fill-opacity:0.0; 
stroke:#840000; stroke-width:60.000000; stroke-opacity:1; 
stroke-linecap:round; stroke-linejoin:round;">
<path d="M600000 600000
L600000 600000
" />
</g>
<g style="fill:#A90000; fill-opacity:0.0; 
stroke:#A90000; stroke-width:60.000000; stroke-opacity:1; 
stroke-linecap:round; stroke-linejoin:round;">
<text x="600000.000000" y="600000.000000"
textLength="536.181102" font-size="666.653543" lengthAdjust="spacingAndGlyphs"
text-anchor="middle" opacity="0">8</text>
<g class="stroked-text"><desc>8</desc>
<path d="M600000 600000
L600000 600000
L600000 600000
L600000 600000
L600000 600000
L600000 600000
L600000 600000
L600000 600000
L600000 600000
L600000 600000
L600000 600000
L600000 600000
L600000 600000
L600000 600000
L600000 600000
L600000 600000
L600000 600000
L600000 600000
L600000 600000
L600000 600000
L600000 600000
L600000 600000
L600000 600000
L600000 600000
L600000 600000
L600000 600000
L600000 600000
L600000 600000
L600000 600000
L600000 600000
L600000 600000
L600000 600000
" />
</g></g>
<g style="fill:#840000; fill-opacity:0.0; 
stroke:#840000; stroke-width:60.000000; stroke-opacity:1; 
stroke-linecap:round; stroke-linejoin:round;">
<path d="M600000 600000
L600000 600000
" />
</g>
<g style="fill:#A90000; fill-opacity:0.0; 
stroke:#A90000; stroke-width:60.000000; stroke-opacity:1; 
stroke-linecap:round; stroke-linejoin:round;">
<text x="600000.000000" y="600000.000000"
textLength="536.181102" font-size="666.653543" lengthAdjust="spacingAndGlyphs"
text-anchor="middle" opacity="0">9</text>
<g class="stroked-text"><desc>9</desc>
<path d="M600000 600000
L600000 600000
L600000 600000
L600000 600000
L600000 600000
L600000 600000
L600000 600000
L600000 600000
L600000 600000
L600000 600000
L600000 600000
L600000 600000
L600000 600000
L600000 600000
L600000 600000
L600000 600000
L600000 600000
L600000 600000
L600000 600000
L600000 600000
L600000 600000
L600000 600000
" />
</g></g>
<g style="fill:#840084; fill-opacity:0.0; 
stroke:#840084; stroke-width:60.000000; stroke-opacity:1; 
stroke-linecap:round; stroke-linejoin:round;">
</g>
<g style="fill:#006464; fill-opacity:0.0; 
stroke:#006464; stroke-width:60.000000; stroke-opacity:1; 
stroke-linecap:round; stroke-linejoin:round;">
</g>
<g style="fill:#006464; fill-opacity:0.0; 
stroke:#006464; stroke-width:62.519685; stroke-opacity:1; 
stroke-linecap:round; stroke-linejoin:round;">
<text x="600000.000000" y="600000.000000"
textLength="1440.944882" font-size="666.653543" lengthAdjust="spacingAndGlyphs"
text-anchor="middle" opacity="0">U?A</text>
<g class="stroked-text"><desc>U?A</desc>
<path d="M600000 600000
L600000 600000
L600000 600000
L600000 600000
L600000 600000
L600000 600000
L600000 600000
L600000 600000
L600000 600000
L600000 600000
" />
<path d="M600000 600000
L600000 600000
L600000 600000
L600000 600000
L600000 600000
L600000 600000
" />
<path d="M600000 600000
L600000 600000
L600000 600000
L600000 600000
L600000 600000
L600000 600000
L600000 600000
L600000 600000
L600000 600000
L600000 600000
L600000 600000
L600000 600000
" />
<path d="M600000 600000
L600000 600000
" />
<path d="M600000 600000
L600000 600000
L600000 600000
" />
</g><text x="600000.000000" y="600000.000000"
textLength="2848.228346" font-size="666.653543" lengthAdjust="spacingAndGlyphs"
text-anchor="middle" opacity="0">74LS32</text>
<g class="stroked-text"><desc>74LS32</desc>
<path d="M600000 600000
L600000 600000
L600000 600000
" />
<path d="M600000 600000
L600000 600000
" />
<path d="M600000 600000
L600000 600000
L600000 600000
" />
<path d="M600000 600000
L600000 600000
L600000 600000
" />
<path d="M600000 600000
L600000 600000
L600000 600000
L600000 600000
L600000 600000
L600000 600000
L600000 600000
L600000 600000
L600000 600000
L600000 600000
L600000 600000
L600000 600000
L600000 600000
L600000 600000
L600000 600000
L600000 600000
L600000 600000
L600000 600000
L600000 600000
L600000 600000
" />
<path d="M600000 600000
L600000 600000
L600000 600000
L600000 600000
L600000 600000
L600000 600000
L600000 600000
L600000 600000
L600000 600000
L600000 600000
L600000 600000
L600000 600000
L600000 600000
L600000 600000
" />
<path d="M600000 600000
L600000 600000
L600000 600000
L600000 600000
L600000 600000
L600000 600000
L600000 600000
L600000 600000
L600000 600000
L600000 600000
L600000 600000
" />
</g></g> 
</svg>
